<mxfile host="app.diagrams.net" modified="2023-08-14T07:22:33.499Z" agent="Mozilla/5.0 (Macintosh; Intel Mac OS X 10_15_7) AppleWebKit/537.36 (KHTML, like Gecko) Chrome/114.0.0.0 Safari/537.36" etag="FLT47_qHdaLKd0lZyKyd" version="21.6.6" type="device">
  <diagram name="PÃ¡gina-1" id="L2aKlIzUbXmHA6JTuLrF">
    <mxGraphModel dx="3363" dy="3109" grid="0" gridSize="10" guides="1" tooltips="1" connect="1" arrows="1" fold="1" page="0" pageScale="1" pageWidth="827" pageHeight="1169" math="0" shadow="0">
      <root>
        <mxCell id="0" />
        <mxCell id="1" parent="0" />
        <mxCell id="YKVOImKXKJTCKOETU9b9-121" value="" style="rounded=1;whiteSpace=wrap;html=1;sketch=1;hachureGap=4;jiggle=2;curveFitting=1;fontFamily=Architects Daughter;fontSource=https%3A%2F%2Ffonts.googleapis.com%2Fcss%3Ffamily%3DArchitects%2BDaughter;fontSize=20;fillColor=none;arcSize=2;spacingLeft=1;" parent="1" vertex="1">
          <mxGeometry x="940" y="-392" width="675" height="325" as="geometry" />
        </mxCell>
        <mxCell id="YKVOImKXKJTCKOETU9b9-102" value="" style="rounded=1;whiteSpace=wrap;html=1;sketch=1;hachureGap=4;jiggle=2;curveFitting=1;fontFamily=Architects Daughter;fontSource=https%3A%2F%2Ffonts.googleapis.com%2Fcss%3Ffamily%3DArchitects%2BDaughter;fontSize=20;fillColor=none;arcSize=2;" parent="1" vertex="1">
          <mxGeometry x="-190" y="-482" width="800" height="549" as="geometry" />
        </mxCell>
        <mxCell id="YKVOImKXKJTCKOETU9b9-18" value="&lt;meta charset=&quot;utf-8&quot;&gt;&lt;span style=&quot;color: rgb(0, 0, 0); font-family: &amp;quot;Architects Daughter&amp;quot;; font-size: 20px; font-style: normal; font-variant-ligatures: normal; font-variant-caps: normal; font-weight: 700; letter-spacing: normal; orphans: 2; text-align: center; text-indent: 0px; text-transform: none; widows: 2; word-spacing: 0px; -webkit-text-stroke-width: 0px; background-color: rgb(255, 255, 255); text-decoration-thickness: initial; text-decoration-style: initial; text-decoration-color: initial; float: none; display: inline !important;&quot;&gt;Platform Repository&lt;/span&gt;" style="shape=cylinder3;whiteSpace=wrap;html=1;boundedLbl=1;backgroundOutline=1;size=15;sketch=1;curveFitting=1;jiggle=2;labelBackgroundColor=none;fillColor=none;verticalAlign=top;spacingLeft=9;spacingRight=9;" parent="1" vertex="1">
          <mxGeometry x="-134" y="819.5" width="265" height="236.5" as="geometry" />
        </mxCell>
        <mxCell id="YKVOImKXKJTCKOETU9b9-21" value="Crossplane Resources" style="rounded=1;whiteSpace=wrap;html=1;sketch=1;hachureGap=4;jiggle=2;curveFitting=1;fontFamily=Architects Daughter;fontSource=https%3A%2F%2Ffonts.googleapis.com%2Fcss%3Ffamily%3DArchitects%2BDaughter;fontSize=20;fillColor=none;verticalAlign=top;" parent="1" vertex="1">
          <mxGeometry x="-116.25" y="888" width="229.5" height="152" as="geometry" />
        </mxCell>
        <mxCell id="YKVOImKXKJTCKOETU9b9-2" value="Control Plane Cluster" style="rounded=1;whiteSpace=wrap;html=1;sketch=1;curveFitting=1;jiggle=2;shadow=0;fillStyle=zigzag;fontStyle=1;verticalAlign=top;labelBackgroundColor=none;fillColor=none;fontSize=37;fontFamily=Architects Daughter;fontSource=https%3A%2F%2Ffonts.googleapis.com%2Fcss%3Ffamily%3DArchitects%2BDaughter;" parent="1" vertex="1">
          <mxGeometry x="278" y="851" width="683" height="400" as="geometry" />
        </mxCell>
        <mxCell id="YKVOImKXKJTCKOETU9b9-12" value="Crossplane" style="rounded=1;whiteSpace=wrap;html=1;sketch=1;hachureGap=4;jiggle=2;curveFitting=1;fontFamily=Architects Daughter;fontSource=https%3A%2F%2Ffonts.googleapis.com%2Fcss%3Ffamily%3DArchitects%2BDaughter;fontSize=35;fillColor=none;verticalAlign=top;fontStyle=1;horizontal=1;" parent="1" vertex="1">
          <mxGeometry x="549" y="929" width="388" height="299" as="geometry" />
        </mxCell>
        <mxCell id="1svdEJqCj0wFNi4G_5_s-1" value="&lt;br style=&quot;font-size: 31px;&quot;&gt;&lt;br style=&quot;font-size: 31px;&quot;&gt;Control &lt;br&gt;Plane &lt;br style=&quot;font-size: 31px;&quot;&gt;Cluster" style="rounded=0;whiteSpace=wrap;html=1;sketch=1;curveFitting=1;jiggle=2;shadow=0;fillStyle=zigzag;fontStyle=1;verticalAlign=middle;labelBackgroundColor=none;fillColor=#ffe6cc;strokeColor=#d79b00;fontFamily=Architects Daughter;fontSource=https%3A%2F%2Ffonts.googleapis.com%2Fcss%3Ffamily%3DArchitects%2BDaughter;fontSize=31;align=left;spacingLeft=19;" parent="1" vertex="1">
          <mxGeometry x="262" y="412" width="443" height="230" as="geometry" />
        </mxCell>
        <mxCell id="mbq64fGAMOvYU9DGf1MP-13" style="edgeStyle=orthogonalEdgeStyle;rounded=0;orthogonalLoop=1;jettySize=auto;html=1;sketch=1;curveFitting=1;jiggle=2;labelBackgroundColor=none;fontColor=default;dashed=1;dashPattern=8 8;entryX=0;entryY=0.5;entryDx=0;entryDy=0;entryPerimeter=0;" parent="1" source="mbq64fGAMOvYU9DGf1MP-1" target="mbq64fGAMOvYU9DGf1MP-10" edge="1">
          <mxGeometry relative="1" as="geometry" />
        </mxCell>
        <mxCell id="mbq64fGAMOvYU9DGf1MP-1" value="ArgoCD" style="rounded=1;whiteSpace=wrap;html=1;sketch=1;curveFitting=1;jiggle=2;labelBackgroundColor=none;" parent="1" vertex="1">
          <mxGeometry x="273" y="447" width="100" height="41" as="geometry" />
        </mxCell>
        <mxCell id="mbq64fGAMOvYU9DGf1MP-2" value="" style="shape=image;verticalLabelPosition=bottom;labelBackgroundColor=none;verticalAlign=top;aspect=fixed;imageAspect=0;image=https://argo-cd.readthedocs.io/en/stable/assets/logo.png;sketch=1;curveFitting=1;jiggle=2;" parent="1" vertex="1">
          <mxGeometry x="266" y="432" width="31" height="31" as="geometry" />
        </mxCell>
        <mxCell id="mbq64fGAMOvYU9DGf1MP-3" value="" style="rounded=1;whiteSpace=wrap;html=1;labelBackgroundColor=none;sketch=1;curveFitting=1;jiggle=2;fillColor=#0050ef;fontColor=#ffffff;strokeColor=#001DBC;fillStyle=solid;" parent="1" vertex="1">
          <mxGeometry x="519" y="447" width="100" height="41" as="geometry" />
        </mxCell>
        <mxCell id="mbq64fGAMOvYU9DGf1MP-5" value="" style="shape=image;verticalLabelPosition=bottom;labelBackgroundColor=none;verticalAlign=top;aspect=fixed;imageAspect=0;image=https://docs.crossplane.io/img/crossplane-logo.svg;sketch=1;curveFitting=1;jiggle=2;" parent="1" vertex="1">
          <mxGeometry x="526.44" y="458.3" width="85.12" height="18.41" as="geometry" />
        </mxCell>
        <mxCell id="mbq64fGAMOvYU9DGf1MP-9" style="edgeStyle=orthogonalEdgeStyle;rounded=0;orthogonalLoop=1;jettySize=auto;html=1;entryX=0.5;entryY=0;entryDx=0;entryDy=0;sketch=1;curveFitting=1;jiggle=2;labelBackgroundColor=none;fontColor=default;" parent="1" source="mbq64fGAMOvYU9DGf1MP-7" target="mbq64fGAMOvYU9DGf1MP-1" edge="1">
          <mxGeometry relative="1" as="geometry" />
        </mxCell>
        <mxCell id="mbq64fGAMOvYU9DGf1MP-7" value="Platform&lt;br&gt;repository" style="shape=cylinder3;whiteSpace=wrap;html=1;boundedLbl=1;backgroundOutline=1;size=15;sketch=1;curveFitting=1;jiggle=2;labelBackgroundColor=none;" parent="1" vertex="1">
          <mxGeometry x="284" y="233" width="73" height="83" as="geometry" />
        </mxCell>
        <mxCell id="mbq64fGAMOvYU9DGf1MP-10" value="Crossplane Resources" style="shape=cylinder3;whiteSpace=wrap;html=1;boundedLbl=1;backgroundOutline=1;size=15;sketch=1;curveFitting=1;jiggle=2;labelBackgroundColor=none;fillColor=#1ba1e2;fontColor=#030303;strokeColor=#006EAF;fillStyle=hachure;fontStyle=1" parent="1" vertex="1">
          <mxGeometry x="522" y="532" width="100" height="74" as="geometry" />
        </mxCell>
        <mxCell id="mbq64fGAMOvYU9DGf1MP-42" style="edgeStyle=orthogonalEdgeStyle;rounded=0;sketch=1;hachureGap=4;jiggle=2;curveFitting=1;orthogonalLoop=1;jettySize=auto;html=1;entryX=0;entryY=0.75;entryDx=0;entryDy=0;fontFamily=Architects Daughter;fontSource=https%3A%2F%2Ffonts.googleapis.com%2Fcss%3Ffamily%3DArchitects%2BDaughter;fontSize=16;exitX=1;exitY=0.3333333333333333;exitDx=0;exitDy=0;exitPerimeter=0;" parent="1" source="mbq64fGAMOvYU9DGf1MP-16" target="mbq64fGAMOvYU9DGf1MP-27" edge="1">
          <mxGeometry relative="1" as="geometry" />
        </mxCell>
        <mxCell id="mbq64fGAMOvYU9DGf1MP-16" value="" style="shape=umlActor;verticalLabelPosition=bottom;verticalAlign=top;html=1;outlineConnect=0;sketch=1;curveFitting=1;jiggle=2;labelBackgroundColor=none;" parent="1" vertex="1">
          <mxGeometry x="10" y="274" width="30" height="60" as="geometry" />
        </mxCell>
        <mxCell id="mbq64fGAMOvYU9DGf1MP-19" value="Push (new, update, delete)&lt;br style=&quot;font-size: 12px;&quot;&gt;&quot;crossplane resource&quot;" style="text;html=1;align=center;verticalAlign=middle;whiteSpace=wrap;rounded=0;fontSize=12;fontFamily=Architects Daughter;fillColor=default;" parent="1" vertex="1">
          <mxGeometry x="34" y="251" width="248" height="35" as="geometry" />
        </mxCell>
        <mxCell id="mbq64fGAMOvYU9DGf1MP-25" value="Push detected:&lt;br style=&quot;font-size: 12px;&quot;&gt;&quot;crossplane resource&quot;" style="text;html=1;align=center;verticalAlign=middle;whiteSpace=wrap;rounded=0;fontSize=12;fontFamily=Architects Daughter;fillColor=default;" parent="1" vertex="1">
          <mxGeometry x="203" y="352" width="248" height="35" as="geometry" />
        </mxCell>
        <mxCell id="mbq64fGAMOvYU9DGf1MP-26" value="apply &lt;br&gt;&quot;crossplane resource&quot;" style="text;html=1;align=center;verticalAlign=middle;whiteSpace=wrap;rounded=0;fontSize=12;fontFamily=Architects Daughter;fillColor=none;" parent="1" vertex="1">
          <mxGeometry x="383" y="432" width="136" height="35" as="geometry" />
        </mxCell>
        <mxCell id="mbq64fGAMOvYU9DGf1MP-27" value="" style="shape=image;verticalLabelPosition=bottom;labelBackgroundColor=default;verticalAlign=top;aspect=fixed;imageAspect=0;image=data:image/png,iVBORw0KGgoAAAANSUhEUgAAAHcAAAB3CAMAAAAO5y+4AAAAaVBMVEX///8XFRUAAAATERH09PTp6ekQDQ0GAAC4uLj39/e8vLzw8PD8/PzAwMALBwe0tLSUlJSfn5+Ih4fg4OB2dnYjIiLQ0NArKirY2Nh/fn7LysppaGhMS0thYWE4NzcdHByop6dVVFRBQUEOIdwWAAAE0ElEQVRoge1a2ZaqOhBtKgyiiCAgo4r8/0ceQAKZIAnQ59x1F/utWyqbJDXsFPn5OXDgwIEDBw7owrOiLMsiy/trjOY1KBuY8CqDs/nLnN41t1sqxzYm2E7Hnl9/b+ZF3BIgQwTU/lIWv0Fq1ukc6Uid1nsvuBmmYC+QDksOaXDZkdW7qbAOzPVuG519FFm/zNVjH9oAHGXWDj7cd2C9VKDF2gEaayttoTlZPOXrNtp6MXTmgSDcQnvXX2OMLZu8gbYlzv8J7XriYBvt2qW+baVtiWt92mw7bUusnbpcYwqgrsgp52eqVCLQLRPPabrILrJz8Fqugt/ptfXolD3S6UH46NHWxCoPfhndJcyt6Ij6J8k40MsfkU0wwHn476VlHlbAGeWV4yPMipNyQfAiiDR4S9KpiD2KSvBbrqR6xvcgDMPgHj+rpP2PD89sfMqjrJ/qtFfSEAH506kp68hyif+4VnSLmxv5UEo6oUaJqHzCzq7UX3jAk7T3G1UBcqZC19dYqAExNQDc5BY9Gn9XXvulZlXQmcrXDMEWJa0VFHf4Q1shpM3b0MnNV/IQi03M4MqNKHjcCCoxHHJWqn6BUXAjBApWKVsB4KTJe2V57bfc6MK9rL5s4BQDyHVtzdiovCsHOhKVBAATAzppbgIrGpxSasLUOr9ZQUuV7+/bywzYKFop/B/sMLJIOtEGKFl5qmSiQhqLjCuCfGPEYLS3NIJj5nndnIHBxDDEkuc/dAToC9EBGVtclvfLe1H7guxs8fF5WAkVF/Zrmdelwwglaw/QJjMBSXExWXfeideA5Q7Tf4XX0FG/JKwUbeF11vpVZGzhNWBtz5GtDLq8O+UNGa+bMMuztjsSsg66HEdeReerlWWQK4R+JakvTNlHycrOLuPO0sLP9nD2qr+y/WLl1cpCmLPD1BID1v/1OxQdPLYzANI8wEnQNR7Na3+pCePQ1HFfFS47XYUTEq+59c+hJTeG/KDCeqJuS+aH90012cL36TST5VkwgoJZLDCrNWgFrXKpquvAnSI7w1L1DOxye2uoVrVkUApkWxIUp1w7Alo7UbIdgs9+naPingJ+iSSUaY8oTISdREXHvKDe+NtPMQM8lA1GFT7m9Jb1CCskbtoipJgBhtoAcV+LruMckA+QVmXOligzL7tmoT/TNVXOeNZ7aHW++rCjGu9I9DUsmOXsLN7KmhTnrOHzExVZwi4Ye76npqvSVPliFL92f25138S+CbssXCeFfE8N5TCegp1e5xSTm84IkHR2nfW6QWP0f+P2CvSLcGD7ChOtnm64vHH0GP3f0Qe318W5miu4eHnemlV03DEssKIgLuOgmMmXpxlefXk2+rSSkhXUoJ5W3ZdH4C1Tysxi3hWSoY2eFyY+yx8W8sJLt5Pb45I4eLWkzSQRr5OsvFNhvTFxGkqCX8DrqOdHFhdcBe22IMRBGOSfmTTA80K64QaJOV1m6L84gj+z2RwvVJuuzLis2lLkhXiVSxEIwVfgpfOGv+02wxePFEQfKed5EaS73JRxc+LuyIxfEbwO5FvXGOPRjMpJxmtDs9O1oO+4+CLUMq8Nqe7HFxluSV+Dl3gBkrXtnyU8yi6CxUnI6n4q91xhEu6tntXP9W0vbzpw4MCBAwf+9/gDAPw29HjkRogAAAAASUVORK5CYII=;" parent="1" vertex="1">
          <mxGeometry x="262" y="268" width="35" height="35" as="geometry" />
        </mxCell>
        <mxCell id="mbq64fGAMOvYU9DGf1MP-29" value="1" style="ellipse;whiteSpace=wrap;html=1;hachureGap=4;fontFamily=Architects Daughter;fontSource=https%3A%2F%2Ffonts.googleapis.com%2Fcss%3Ffamily%3DArchitects%2BDaughter;fontSize=20;fontStyle=1" parent="1" vertex="1">
          <mxGeometry x="61" y="264" width="18" height="22" as="geometry" />
        </mxCell>
        <mxCell id="mbq64fGAMOvYU9DGf1MP-32" value="2" style="ellipse;whiteSpace=wrap;html=1;hachureGap=4;fontFamily=Architects Daughter;fontSource=https%3A%2F%2Ffonts.googleapis.com%2Fcss%3Ffamily%3DArchitects%2BDaughter;fontSize=20;fontStyle=1" parent="1" vertex="1">
          <mxGeometry x="229" y="364" width="18" height="22" as="geometry" />
        </mxCell>
        <mxCell id="mbq64fGAMOvYU9DGf1MP-33" value="3" style="ellipse;whiteSpace=wrap;html=1;hachureGap=4;fontFamily=Architects Daughter;fontSource=https%3A%2F%2Ffonts.googleapis.com%2Fcss%3Ffamily%3DArchitects%2BDaughter;fontSize=20;fontStyle=1" parent="1" vertex="1">
          <mxGeometry x="392" y="428" width="18" height="22" as="geometry" />
        </mxCell>
        <mxCell id="mbq64fGAMOvYU9DGf1MP-41" value="Dev&lt;br&gt;(Platform)" style="text;html=1;align=center;verticalAlign=middle;whiteSpace=wrap;rounded=0;fontSize=12;fontFamily=Architects Daughter;fillColor=default;" parent="1" vertex="1">
          <mxGeometry x="-5" y="229" width="60" height="35" as="geometry" />
        </mxCell>
        <mxCell id="YKVOImKXKJTCKOETU9b9-6" value="XR &amp;amp;&amp;nbsp;&lt;span style=&quot;font-size: 22px;&quot;&gt;Claims&lt;/span&gt;" style="rounded=1;whiteSpace=wrap;html=1;sketch=1;hachureGap=4;jiggle=2;curveFitting=1;fontFamily=Architects Daughter;fontSource=https%3A%2F%2Ffonts.googleapis.com%2Fcss%3Ffamily%3DArchitects%2BDaughter;fontSize=22;verticalAlign=top;fontStyle=1" parent="1" vertex="1">
          <mxGeometry x="575" y="1001" width="124" height="203" as="geometry" />
        </mxCell>
        <mxCell id="YKVOImKXKJTCKOETU9b9-9" value="Providers" style="rounded=1;whiteSpace=wrap;html=1;sketch=1;hachureGap=4;jiggle=2;curveFitting=1;fontFamily=Architects Daughter;fontSource=https%3A%2F%2Ffonts.googleapis.com%2Fcss%3Ffamily%3DArchitects%2BDaughter;fontSize=25;verticalAlign=top;fontStyle=1" parent="1" vertex="1">
          <mxGeometry x="730" y="1001" width="192" height="203" as="geometry" />
        </mxCell>
        <mxCell id="YKVOImKXKJTCKOETU9b9-13" value="ArgoCD" style="rounded=1;whiteSpace=wrap;html=1;sketch=1;hachureGap=4;jiggle=2;curveFitting=1;fontFamily=Architects Daughter;fontSource=https%3A%2F%2Ffonts.googleapis.com%2Fcss%3Ffamily%3DArchitects%2BDaughter;fontSize=32;fillColor=none;verticalAlign=top;fontStyle=1" parent="1" vertex="1">
          <mxGeometry x="310" y="929" width="222" height="295" as="geometry" />
        </mxCell>
        <mxCell id="YKVOImKXKJTCKOETU9b9-14" value="Apps" style="rounded=1;whiteSpace=wrap;html=1;sketch=1;hachureGap=4;jiggle=2;curveFitting=1;fontFamily=Architects Daughter;fontSource=https%3A%2F%2Ffonts.googleapis.com%2Fcss%3Ffamily%3DArchitects%2BDaughter;fontSize=30;verticalAlign=top;" parent="1" vertex="1">
          <mxGeometry x="323" y="994" width="199" height="217" as="geometry" />
        </mxCell>
        <mxCell id="YKVOImKXKJTCKOETU9b9-35" value="RDS" style="rounded=1;whiteSpace=wrap;html=1;sketch=1;hachureGap=4;jiggle=2;curveFitting=1;fontFamily=Architects Daughter;fontSource=https%3A%2F%2Ffonts.googleapis.com%2Fcss%3Ffamily%3DArchitects%2BDaughter;fontSize=20;fillColor=none;" parent="1" vertex="1">
          <mxGeometry x="584.5" y="1109" width="105" height="31" as="geometry" />
        </mxCell>
        <mxCell id="YKVOImKXKJTCKOETU9b9-36" value="EKS" style="rounded=1;whiteSpace=wrap;html=1;sketch=1;hachureGap=4;jiggle=2;curveFitting=1;fontFamily=Architects Daughter;fontSource=https%3A%2F%2Ffonts.googleapis.com%2Fcss%3Ffamily%3DArchitects%2BDaughter;fontSize=20;fillColor=none;" parent="1" vertex="1">
          <mxGeometry x="584.5" y="1071.5" width="105" height="29" as="geometry" />
        </mxCell>
        <mxCell id="YKVOImKXKJTCKOETU9b9-38" style="edgeStyle=orthogonalEdgeStyle;rounded=0;sketch=1;hachureGap=4;jiggle=2;curveFitting=1;orthogonalLoop=1;jettySize=auto;html=1;exitX=1;exitY=0.5;exitDx=0;exitDy=0;fontFamily=Architects Daughter;fontSource=https%3A%2F%2Ffonts.googleapis.com%2Fcss%3Ffamily%3DArchitects%2BDaughter;fontSize=16;" parent="1" source="YKVOImKXKJTCKOETU9b9-37" edge="1">
          <mxGeometry relative="1" as="geometry">
            <mxPoint x="568" y="1087" as="targetPoint" />
          </mxGeometry>
        </mxCell>
        <mxCell id="YKVOImKXKJTCKOETU9b9-37" value="Crossplane Resources App" style="rounded=1;whiteSpace=wrap;html=1;sketch=1;hachureGap=4;jiggle=2;curveFitting=1;fontFamily=Architects Daughter;fontSource=https%3A%2F%2Ffonts.googleapis.com%2Fcss%3Ffamily%3DArchitects%2BDaughter;fontSize=18;fillColor=none;" parent="1" vertex="1">
          <mxGeometry x="344.5" y="1053" width="153" height="66" as="geometry" />
        </mxCell>
        <mxCell id="YKVOImKXKJTCKOETU9b9-39" value="K8s" style="rounded=1;whiteSpace=wrap;html=1;sketch=1;hachureGap=4;jiggle=2;curveFitting=1;fontFamily=Architects Daughter;fontSource=https%3A%2F%2Ffonts.googleapis.com%2Fcss%3Ffamily%3DArchitects%2BDaughter;fontSize=18;fillColor=none;" parent="1" vertex="1">
          <mxGeometry x="753" y="1084" width="152" height="28" as="geometry" />
        </mxCell>
        <mxCell id="YKVOImKXKJTCKOETU9b9-41" value="AWS" style="rounded=1;whiteSpace=wrap;html=1;sketch=1;hachureGap=4;jiggle=2;curveFitting=1;fontFamily=Architects Daughter;fontSource=https%3A%2F%2Ffonts.googleapis.com%2Fcss%3Ffamily%3DArchitects%2BDaughter;fontSize=18;fillColor=none;" parent="1" vertex="1">
          <mxGeometry x="753" y="1050" width="152" height="28" as="geometry" />
        </mxCell>
        <mxCell id="YKVOImKXKJTCKOETU9b9-42" value="Helm" style="rounded=1;whiteSpace=wrap;html=1;sketch=1;hachureGap=4;jiggle=2;curveFitting=1;fontFamily=Architects Daughter;fontSource=https%3A%2F%2Ffonts.googleapis.com%2Fcss%3Ffamily%3DArchitects%2BDaughter;fontSize=18;fillColor=none;" parent="1" vertex="1">
          <mxGeometry x="753" y="1118" width="152" height="28" as="geometry" />
        </mxCell>
        <mxCell id="YKVOImKXKJTCKOETU9b9-43" value="Gitlab" style="rounded=1;whiteSpace=wrap;html=1;sketch=1;hachureGap=4;jiggle=2;curveFitting=1;fontFamily=Architects Daughter;fontSource=https%3A%2F%2Ffonts.googleapis.com%2Fcss%3Ffamily%3DArchitects%2BDaughter;fontSize=18;fillColor=none;" parent="1" vertex="1">
          <mxGeometry x="753" y="1152" width="152" height="28" as="geometry" />
        </mxCell>
        <mxCell id="YKVOImKXKJTCKOETU9b9-44" style="edgeStyle=orthogonalEdgeStyle;rounded=0;sketch=1;hachureGap=4;jiggle=2;curveFitting=1;orthogonalLoop=1;jettySize=auto;html=1;exitX=1;exitY=0.5;exitDx=0;exitDy=0;entryX=0;entryY=0.5;entryDx=0;entryDy=0;fontFamily=Architects Daughter;fontSource=https%3A%2F%2Ffonts.googleapis.com%2Fcss%3Ffamily%3DArchitects%2BDaughter;fontSize=16;" parent="1" source="YKVOImKXKJTCKOETU9b9-21" target="YKVOImKXKJTCKOETU9b9-37" edge="1">
          <mxGeometry relative="1" as="geometry" />
        </mxCell>
        <mxCell id="YKVOImKXKJTCKOETU9b9-52" style="edgeStyle=orthogonalEdgeStyle;rounded=0;sketch=1;hachureGap=4;jiggle=2;curveFitting=1;orthogonalLoop=1;jettySize=auto;html=1;exitX=1;exitY=0.5;exitDx=0;exitDy=0;entryX=0;entryY=0.5;entryDx=0;entryDy=0;fontFamily=Architects Daughter;fontSource=https%3A%2F%2Ffonts.googleapis.com%2Fcss%3Ffamily%3DArchitects%2BDaughter;fontSize=16;" parent="1" source="YKVOImKXKJTCKOETU9b9-49" target="YKVOImKXKJTCKOETU9b9-51" edge="1">
          <mxGeometry relative="1" as="geometry" />
        </mxCell>
        <mxCell id="YKVOImKXKJTCKOETU9b9-48" value="&lt;span style=&quot;color: rgb(0, 0, 0); font-family: &amp;quot;Architects Daughter&amp;quot;; font-size: 20px; font-style: normal; font-variant-ligatures: normal; font-variant-caps: normal; font-weight: 700; letter-spacing: normal; orphans: 2; text-align: center; text-indent: 0px; text-transform: none; widows: 2; word-spacing: 0px; -webkit-text-stroke-width: 0px; background-color: rgb(255, 255, 255); text-decoration-thickness: initial; text-decoration-style: initial; text-decoration-color: initial; float: none; display: inline !important;&quot;&gt;Claim Requests&lt;br&gt;Repository&lt;br&gt;&lt;/span&gt;" style="shape=cylinder3;whiteSpace=wrap;html=1;boundedLbl=1;backgroundOutline=1;size=15;sketch=1;curveFitting=1;jiggle=2;labelBackgroundColor=none;fillColor=none;verticalAlign=top;spacingLeft=9;spacingRight=9;" parent="1" vertex="1">
          <mxGeometry x="-136" y="1103.5" width="267" height="274.5" as="geometry" />
        </mxCell>
        <mxCell id="YKVOImKXKJTCKOETU9b9-49" value="Claims" style="rounded=1;whiteSpace=wrap;html=1;sketch=1;hachureGap=4;jiggle=2;curveFitting=1;fontFamily=Architects Daughter;fontSource=https%3A%2F%2Ffonts.googleapis.com%2Fcss%3Ffamily%3DArchitects%2BDaughter;fontSize=20;fillColor=none;verticalAlign=top;" parent="1" vertex="1">
          <mxGeometry x="-116.75" y="1202" width="225.5" height="154" as="geometry" />
        </mxCell>
        <mxCell id="YKVOImKXKJTCKOETU9b9-51" value="Claim&lt;br&gt;Requests" style="rounded=1;whiteSpace=wrap;html=1;sketch=1;hachureGap=4;jiggle=2;curveFitting=1;fontFamily=Architects Daughter;fontSource=https%3A%2F%2Ffonts.googleapis.com%2Fcss%3Ffamily%3DArchitects%2BDaughter;fontSize=20;fillColor=none;" parent="1" vertex="1">
          <mxGeometry x="344.5" y="1133" width="153" height="66" as="geometry" />
        </mxCell>
        <mxCell id="YKVOImKXKJTCKOETU9b9-80" style="edgeStyle=orthogonalEdgeStyle;rounded=0;sketch=1;hachureGap=4;jiggle=2;curveFitting=1;orthogonalLoop=1;jettySize=auto;html=1;exitX=1;exitY=0.5;exitDx=0;exitDy=0;fontFamily=Architects Daughter;fontSource=https%3A%2F%2Ffonts.googleapis.com%2Fcss%3Ffamily%3DArchitects%2BDaughter;fontSize=16;" parent="1" source="YKVOImKXKJTCKOETU9b9-78" target="YKVOImKXKJTCKOETU9b9-79" edge="1">
          <mxGeometry relative="1" as="geometry" />
        </mxCell>
        <mxCell id="YKVOImKXKJTCKOETU9b9-95" style="edgeStyle=orthogonalEdgeStyle;rounded=0;sketch=1;hachureGap=4;jiggle=2;curveFitting=1;orthogonalLoop=1;jettySize=auto;html=1;exitX=0.25;exitY=1;exitDx=0;exitDy=0;entryX=0.25;entryY=0;entryDx=0;entryDy=0;fontFamily=Architects Daughter;fontSource=https%3A%2F%2Ffonts.googleapis.com%2Fcss%3Ffamily%3DArchitects%2BDaughter;fontSize=16;" parent="1" source="YKVOImKXKJTCKOETU9b9-78" target="YKVOImKXKJTCKOETU9b9-93" edge="1">
          <mxGeometry relative="1" as="geometry" />
        </mxCell>
        <mxCell id="YKVOImKXKJTCKOETU9b9-96" style="edgeStyle=orthogonalEdgeStyle;rounded=0;sketch=1;hachureGap=4;jiggle=2;curveFitting=1;orthogonalLoop=1;jettySize=auto;html=1;exitX=0.75;exitY=1;exitDx=0;exitDy=0;entryX=0.784;entryY=-0.052;entryDx=0;entryDy=0;entryPerimeter=0;fontFamily=Architects Daughter;fontSource=https%3A%2F%2Ffonts.googleapis.com%2Fcss%3Ffamily%3DArchitects%2BDaughter;fontSize=16;" parent="1" source="YKVOImKXKJTCKOETU9b9-78" target="YKVOImKXKJTCKOETU9b9-93" edge="1">
          <mxGeometry relative="1" as="geometry" />
        </mxCell>
        <mxCell id="YKVOImKXKJTCKOETU9b9-99" style="edgeStyle=orthogonalEdgeStyle;rounded=0;sketch=1;hachureGap=4;jiggle=2;curveFitting=1;orthogonalLoop=1;jettySize=auto;html=1;exitX=1;exitY=0.5;exitDx=0;exitDy=0;entryX=0;entryY=0.5;entryDx=0;entryDy=0;entryPerimeter=0;fontFamily=Architects Daughter;fontSource=https%3A%2F%2Ffonts.googleapis.com%2Fcss%3Ffamily%3DArchitects%2BDaughter;fontSize=16;" parent="1" source="YKVOImKXKJTCKOETU9b9-78" target="YKVOImKXKJTCKOETU9b9-98" edge="1">
          <mxGeometry relative="1" as="geometry" />
        </mxCell>
        <mxCell id="YKVOImKXKJTCKOETU9b9-101" style="edgeStyle=orthogonalEdgeStyle;rounded=0;sketch=1;hachureGap=4;jiggle=2;curveFitting=1;orthogonalLoop=1;jettySize=auto;html=1;exitX=0.75;exitY=0;exitDx=0;exitDy=0;entryX=0.744;entryY=0.97;entryDx=0;entryDy=0;entryPerimeter=0;fontFamily=Architects Daughter;fontSource=https%3A%2F%2Ffonts.googleapis.com%2Fcss%3Ffamily%3DArchitects%2BDaughter;fontSize=16;startArrow=classic;startFill=1;endArrow=none;endFill=0;" parent="1" source="YKVOImKXKJTCKOETU9b9-78" target="YKVOImKXKJTCKOETU9b9-83" edge="1">
          <mxGeometry relative="1" as="geometry">
            <Array as="points">
              <mxPoint x="269" y="-247" />
              <mxPoint x="388" y="-247" />
            </Array>
          </mxGeometry>
        </mxCell>
        <mxCell id="YKVOImKXKJTCKOETU9b9-78" value="Containers Platform&lt;br style=&quot;font-size: 21px;&quot;&gt;&lt;span style=&quot;font-weight: normal; font-size: 21px;&quot;&gt;(K8s Cluster)&lt;/span&gt;" style="rounded=1;whiteSpace=wrap;html=1;sketch=1;hachureGap=4;jiggle=2;curveFitting=1;fontFamily=Architects Daughter;fontSource=https%3A%2F%2Ffonts.googleapis.com%2Fcss%3Ffamily%3DArchitects%2BDaughter;fontSize=21;fontStyle=1" parent="1" vertex="1">
          <mxGeometry x="93" y="-189" width="234" height="137" as="geometry" />
        </mxCell>
        <mxCell id="YKVOImKXKJTCKOETU9b9-79" value="DB&lt;br&gt;(&lt;span style=&quot;font-weight: normal;&quot;&gt;Postgresql&lt;/span&gt;)" style="shape=cylinder3;whiteSpace=wrap;html=1;boundedLbl=1;backgroundOutline=1;size=15;sketch=1;hachureGap=4;jiggle=2;curveFitting=1;fontFamily=Architects Daughter;fontSource=https%3A%2F%2Ffonts.googleapis.com%2Fcss%3Ffamily%3DArchitects%2BDaughter;fontSize=17;fontStyle=1" parent="1" vertex="1">
          <mxGeometry x="423" y="-107" width="109" height="106" as="geometry" />
        </mxCell>
        <mxCell id="YKVOImKXKJTCKOETU9b9-85" style="edgeStyle=orthogonalEdgeStyle;rounded=0;sketch=1;hachureGap=4;jiggle=2;curveFitting=1;orthogonalLoop=1;jettySize=auto;html=1;exitX=0.5;exitY=1;exitDx=0;exitDy=0;exitPerimeter=0;entryX=0.5;entryY=0;entryDx=0;entryDy=0;fontFamily=Architects Daughter;fontSource=https%3A%2F%2Ffonts.googleapis.com%2Fcss%3Ffamily%3DArchitects%2BDaughter;fontSize=16;" parent="1" source="YKVOImKXKJTCKOETU9b9-82" target="YKVOImKXKJTCKOETU9b9-84" edge="1">
          <mxGeometry relative="1" as="geometry" />
        </mxCell>
        <mxCell id="YKVOImKXKJTCKOETU9b9-82" value="Code&lt;br&gt;Repository" style="shape=cylinder3;whiteSpace=wrap;html=1;boundedLbl=1;backgroundOutline=1;size=15;sketch=1;hachureGap=4;jiggle=2;curveFitting=1;fontFamily=Architects Daughter;fontSource=https%3A%2F%2Ffonts.googleapis.com%2Fcss%3Ffamily%3DArchitects%2BDaughter;fontSize=17;fontStyle=1" parent="1" vertex="1">
          <mxGeometry x="155" y="-462.16" width="109" height="106" as="geometry" />
        </mxCell>
        <mxCell id="YKVOImKXKJTCKOETU9b9-83" value="Image&lt;br&gt;Registry" style="shape=cylinder3;whiteSpace=wrap;html=1;boundedLbl=1;backgroundOutline=1;size=15;sketch=1;hachureGap=4;jiggle=2;curveFitting=1;fontFamily=Architects Daughter;fontSource=https%3A%2F%2Ffonts.googleapis.com%2Fcss%3Ffamily%3DArchitects%2BDaughter;fontSize=17;fontStyle=1" parent="1" vertex="1">
          <mxGeometry x="307" y="-462.16" width="109" height="106" as="geometry" />
        </mxCell>
        <mxCell id="YKVOImKXKJTCKOETU9b9-86" style="edgeStyle=orthogonalEdgeStyle;rounded=0;sketch=1;hachureGap=4;jiggle=2;curveFitting=1;orthogonalLoop=1;jettySize=auto;html=1;exitX=1;exitY=0.5;exitDx=0;exitDy=0;entryX=0.371;entryY=0.96;entryDx=0;entryDy=0;entryPerimeter=0;fontFamily=Architects Daughter;fontSource=https%3A%2F%2Ffonts.googleapis.com%2Fcss%3Ffamily%3DArchitects%2BDaughter;fontSize=16;" parent="1" source="YKVOImKXKJTCKOETU9b9-84" target="YKVOImKXKJTCKOETU9b9-83" edge="1">
          <mxGeometry relative="1" as="geometry" />
        </mxCell>
        <mxCell id="YKVOImKXKJTCKOETU9b9-89" style="edgeStyle=orthogonalEdgeStyle;rounded=0;sketch=1;hachureGap=4;jiggle=2;curveFitting=1;orthogonalLoop=1;jettySize=auto;html=1;exitX=0.5;exitY=1;exitDx=0;exitDy=0;entryX=0.153;entryY=-0.021;entryDx=0;entryDy=0;entryPerimeter=0;fontFamily=Architects Daughter;fontSource=https%3A%2F%2Ffonts.googleapis.com%2Fcss%3Ffamily%3DArchitects%2BDaughter;fontSize=16;" parent="1" source="YKVOImKXKJTCKOETU9b9-84" edge="1">
          <mxGeometry relative="1" as="geometry">
            <mxPoint x="208.18999999999983" y="-186.99500000000003" as="targetPoint" />
          </mxGeometry>
        </mxCell>
        <mxCell id="YKVOImKXKJTCKOETU9b9-84" value="CI/CD" style="rounded=1;whiteSpace=wrap;html=1;sketch=1;hachureGap=4;jiggle=2;curveFitting=1;fontFamily=Architects Daughter;fontSource=https%3A%2F%2Ffonts.googleapis.com%2Fcss%3Ffamily%3DArchitects%2BDaughter;fontSize=23;fontStyle=1" parent="1" vertex="1">
          <mxGeometry x="149.5" y="-321.16" width="120" height="60" as="geometry" />
        </mxCell>
        <mxCell id="YKVOImKXKJTCKOETU9b9-88" style="edgeStyle=orthogonalEdgeStyle;rounded=0;sketch=1;hachureGap=4;jiggle=2;curveFitting=1;orthogonalLoop=1;jettySize=auto;html=1;exitX=0.5;exitY=1;exitDx=0;exitDy=0;exitPerimeter=0;entryX=0;entryY=0.5;entryDx=0;entryDy=0;fontFamily=Architects Daughter;fontSource=https%3A%2F%2Ffonts.googleapis.com%2Fcss%3Ffamily%3DArchitects%2BDaughter;fontSize=16;" parent="1" source="YKVOImKXKJTCKOETU9b9-87" target="YKVOImKXKJTCKOETU9b9-84" edge="1">
          <mxGeometry relative="1" as="geometry" />
        </mxCell>
        <mxCell id="YKVOImKXKJTCKOETU9b9-87" value="GitOps&lt;br&gt;Repository" style="shape=cylinder3;whiteSpace=wrap;html=1;boundedLbl=1;backgroundOutline=1;size=15;sketch=1;hachureGap=4;jiggle=2;curveFitting=1;fontFamily=Architects Daughter;fontSource=https%3A%2F%2Ffonts.googleapis.com%2Fcss%3Ffamily%3DArchitects%2BDaughter;fontSize=17;fontStyle=1" parent="1" vertex="1">
          <mxGeometry x="-8" y="-462.16" width="109" height="106" as="geometry" />
        </mxCell>
        <mxCell id="YKVOImKXKJTCKOETU9b9-92" style="edgeStyle=orthogonalEdgeStyle;rounded=0;sketch=1;hachureGap=4;jiggle=2;curveFitting=1;orthogonalLoop=1;jettySize=auto;html=1;entryX=0;entryY=0.5;entryDx=0;entryDy=0;fontFamily=Architects Daughter;fontSource=https%3A%2F%2Ffonts.googleapis.com%2Fcss%3Ffamily%3DArchitects%2BDaughter;fontSize=16;startArrow=classicThin;startFill=1;" parent="1" source="YKVOImKXKJTCKOETU9b9-91" target="YKVOImKXKJTCKOETU9b9-78" edge="1">
          <mxGeometry relative="1" as="geometry" />
        </mxCell>
        <mxCell id="YKVOImKXKJTCKOETU9b9-91" value="&lt;b style=&quot;font-size: 18px;&quot;&gt;Event Broker&lt;/b&gt;&lt;br style=&quot;font-size: 18px;&quot;&gt;(Kafka)" style="shape=cylinder3;whiteSpace=wrap;html=1;boundedLbl=1;backgroundOutline=1;size=15;sketch=1;hachureGap=4;jiggle=2;curveFitting=1;fontFamily=Architects Daughter;fontSource=https%3A%2F%2Ffonts.googleapis.com%2Fcss%3Ffamily%3DArchitects%2BDaughter;fontSize=18;rotation=90;horizontal=0;" parent="1" vertex="1">
          <mxGeometry x="-107" y="-212" width="60" height="183" as="geometry" />
        </mxCell>
        <mxCell id="YKVOImKXKJTCKOETU9b9-94" value="" style="edgeStyle=orthogonalEdgeStyle;rounded=0;sketch=1;hachureGap=4;jiggle=2;curveFitting=1;orthogonalLoop=1;jettySize=auto;html=1;fontFamily=Architects Daughter;fontSource=https%3A%2F%2Ffonts.googleapis.com%2Fcss%3Ffamily%3DArchitects%2BDaughter;fontSize=16;" parent="1" source="YKVOImKXKJTCKOETU9b9-93" target="YKVOImKXKJTCKOETU9b9-78" edge="1">
          <mxGeometry relative="1" as="geometry">
            <Array as="points">
              <mxPoint x="182" y="-29" />
              <mxPoint x="182" y="-29" />
            </Array>
          </mxGeometry>
        </mxCell>
        <mxCell id="YKVOImKXKJTCKOETU9b9-93" value="Monitoring&lt;br style=&quot;font-size: 18px;&quot;&gt;&lt;span style=&quot;font-weight: normal;&quot;&gt;(Prometheus &amp;amp; Grafana)&lt;/span&gt;" style="rounded=1;whiteSpace=wrap;html=1;sketch=1;hachureGap=4;jiggle=2;curveFitting=1;fontFamily=Architects Daughter;fontSource=https%3A%2F%2Ffonts.googleapis.com%2Fcss%3Ffamily%3DArchitects%2BDaughter;fontSize=18;fontStyle=1;arcSize=31;" parent="1" vertex="1">
          <mxGeometry x="93" y="-11" width="230" height="59" as="geometry" />
        </mxCell>
        <mxCell id="YKVOImKXKJTCKOETU9b9-97" value="" style="edgeStyle=orthogonalEdgeStyle;rounded=0;sketch=1;hachureGap=4;jiggle=2;curveFitting=1;orthogonalLoop=1;jettySize=auto;html=1;fontFamily=Architects Daughter;fontSource=https%3A%2F%2Ffonts.googleapis.com%2Fcss%3Ffamily%3DArchitects%2BDaughter;fontSize=16;" parent="1" edge="1">
          <mxGeometry relative="1" as="geometry">
            <mxPoint x="249" y="-11" as="sourcePoint" />
            <mxPoint x="249" y="-52" as="targetPoint" />
            <Array as="points">
              <mxPoint x="249" y="-29" />
              <mxPoint x="249" y="-29" />
            </Array>
          </mxGeometry>
        </mxCell>
        <mxCell id="YKVOImKXKJTCKOETU9b9-98" value="Cache&lt;br&gt;(&lt;span style=&quot;font-weight: normal;&quot;&gt;Redis&lt;/span&gt;)" style="shape=cylinder3;whiteSpace=wrap;html=1;boundedLbl=1;backgroundOutline=1;size=15;sketch=1;hachureGap=4;jiggle=2;curveFitting=1;fontFamily=Architects Daughter;fontSource=https%3A%2F%2Ffonts.googleapis.com%2Fcss%3Ffamily%3DArchitects%2BDaughter;fontSize=17;fontStyle=1" parent="1" vertex="1">
          <mxGeometry x="423" y="-249" width="109" height="106" as="geometry" />
        </mxCell>
        <mxCell id="YKVOImKXKJTCKOETU9b9-103" value="IDP" style="text;html=1;strokeColor=none;fillColor=none;align=center;verticalAlign=middle;whiteSpace=wrap;rounded=0;fontSize=70;fontFamily=Architects Daughter;fontStyle=1" parent="1" vertex="1">
          <mxGeometry x="-179" y="-3" width="116" height="63" as="geometry" />
        </mxCell>
        <mxCell id="YKVOImKXKJTCKOETU9b9-104" value="Platform base:&lt;br&gt;Containers platform + DB" style="rounded=1;whiteSpace=wrap;html=1;sketch=1;hachureGap=4;jiggle=2;curveFitting=1;fontFamily=Architects Daughter;fontSource=https%3A%2F%2Ffonts.googleapis.com%2Fcss%3Ffamily%3DArchitects%2BDaughter;fontSize=22;fontStyle=1" parent="1" vertex="1">
          <mxGeometry x="1027" y="-307" width="535" height="62" as="geometry" />
        </mxCell>
        <mxCell id="YKVOImKXKJTCKOETU9b9-105" value="Platform tools:&lt;br&gt;Event Broker, Cache and Monitoring" style="rounded=1;whiteSpace=wrap;html=1;sketch=1;hachureGap=4;jiggle=2;curveFitting=1;fontFamily=Architects Daughter;fontSource=https%3A%2F%2Ffonts.googleapis.com%2Fcss%3Ffamily%3DArchitects%2BDaughter;fontSize=22;fontStyle=1" parent="1" vertex="1">
          <mxGeometry x="1027" y="-223" width="535" height="56" as="geometry" />
        </mxCell>
        <mxCell id="YKVOImKXKJTCKOETU9b9-106" value="Dev &amp;amp; GitOps Repositories + CI/CDÂ´" style="rounded=1;whiteSpace=wrap;html=1;sketch=1;hachureGap=4;jiggle=2;curveFitting=1;fontFamily=Architects Daughter;fontSource=https%3A%2F%2Ffonts.googleapis.com%2Fcss%3Ffamily%3DArchitects%2BDaughter;fontSize=22;fontStyle=1" parent="1" vertex="1">
          <mxGeometry x="1027" y="-148.5" width="535" height="56" as="geometry" />
        </mxCell>
        <mxCell id="YKVOImKXKJTCKOETU9b9-111" style="edgeStyle=orthogonalEdgeStyle;rounded=0;sketch=1;hachureGap=4;jiggle=2;curveFitting=1;orthogonalLoop=1;jettySize=auto;html=1;exitX=0.5;exitY=1;exitDx=0;exitDy=0;entryX=0;entryY=0.5;entryDx=0;entryDy=0;entryPerimeter=0;fontFamily=Architects Daughter;fontSource=https%3A%2F%2Ffonts.googleapis.com%2Fcss%3Ffamily%3DArchitects%2BDaughter;fontSize=16;" parent="1" source="YKVOImKXKJTCKOETU9b9-107" target="YKVOImKXKJTCKOETU9b9-91" edge="1">
          <mxGeometry relative="1" as="geometry" />
        </mxCell>
        <mxCell id="YKVOImKXKJTCKOETU9b9-107" value="Kafka UI" style="rounded=1;whiteSpace=wrap;html=1;sketch=1;hachureGap=4;jiggle=2;curveFitting=1;fontFamily=Architects Daughter;fontSource=https%3A%2F%2Ffonts.googleapis.com%2Fcss%3Ffamily%3DArchitects%2BDaughter;fontSize=20;fontStyle=1" parent="1" vertex="1">
          <mxGeometry x="-140" y="-257" width="125" height="60" as="geometry" />
        </mxCell>
        <mxCell id="YKVOImKXKJTCKOETU9b9-118" style="edgeStyle=orthogonalEdgeStyle;rounded=0;sketch=1;hachureGap=4;jiggle=2;curveFitting=1;orthogonalLoop=1;jettySize=auto;html=1;exitX=0.5;exitY=1;exitDx=0;exitDy=0;entryX=0.5;entryY=0;entryDx=0;entryDy=0;fontFamily=Architects Daughter;fontSource=https%3A%2F%2Ffonts.googleapis.com%2Fcss%3Ffamily%3DArchitects%2BDaughter;fontSize=16;" parent="1" source="YKVOImKXKJTCKOETU9b9-113" target="YKVOImKXKJTCKOETU9b9-115" edge="1">
          <mxGeometry relative="1" as="geometry" />
        </mxCell>
        <mxCell id="YKVOImKXKJTCKOETU9b9-113" value="1" style="ellipse;whiteSpace=wrap;html=1;hachureGap=4;fontFamily=Architects Daughter;fontSource=https%3A%2F%2Ffonts.googleapis.com%2Fcss%3Ffamily%3DArchitects%2BDaughter;fontSize=38;fontStyle=1" parent="1" vertex="1">
          <mxGeometry x="980" y="-294.5" width="37" height="37" as="geometry" />
        </mxCell>
        <mxCell id="YKVOImKXKJTCKOETU9b9-120" style="edgeStyle=orthogonalEdgeStyle;rounded=0;sketch=1;hachureGap=4;jiggle=2;curveFitting=1;orthogonalLoop=1;jettySize=auto;html=1;exitX=0.5;exitY=1;exitDx=0;exitDy=0;entryX=0.5;entryY=0;entryDx=0;entryDy=0;fontFamily=Architects Daughter;fontSource=https%3A%2F%2Ffonts.googleapis.com%2Fcss%3Ffamily%3DArchitects%2BDaughter;fontSize=16;" parent="1" source="YKVOImKXKJTCKOETU9b9-115" target="YKVOImKXKJTCKOETU9b9-116" edge="1">
          <mxGeometry relative="1" as="geometry" />
        </mxCell>
        <mxCell id="YKVOImKXKJTCKOETU9b9-115" value="2" style="ellipse;whiteSpace=wrap;html=1;hachureGap=4;fontFamily=Architects Daughter;fontSource=https%3A%2F%2Ffonts.googleapis.com%2Fcss%3Ffamily%3DArchitects%2BDaughter;fontSize=38;fontStyle=1" parent="1" vertex="1">
          <mxGeometry x="980" y="-213.5" width="37" height="37" as="geometry" />
        </mxCell>
        <mxCell id="YKVOImKXKJTCKOETU9b9-116" value="3" style="ellipse;whiteSpace=wrap;html=1;hachureGap=4;fontFamily=Architects Daughter;fontSource=https%3A%2F%2Ffonts.googleapis.com%2Fcss%3Ffamily%3DArchitects%2BDaughter;fontSize=38;fontStyle=1" parent="1" vertex="1">
          <mxGeometry x="981" y="-139" width="37" height="37" as="geometry" />
        </mxCell>
        <mxCell id="YKVOImKXKJTCKOETU9b9-122" value="IDP" style="text;html=1;strokeColor=none;fillColor=none;align=center;verticalAlign=middle;whiteSpace=wrap;rounded=0;fontSize=70;fontFamily=Architects Daughter;fontStyle=1" parent="1" vertex="1">
          <mxGeometry x="1230" y="-380" width="116" height="63" as="geometry" />
        </mxCell>
        <mxCell id="YKVOImKXKJTCKOETU9b9-125" style="edgeStyle=orthogonalEdgeStyle;rounded=0;sketch=1;hachureGap=4;jiggle=2;curveFitting=1;orthogonalLoop=1;jettySize=auto;html=1;exitX=0;exitY=0.75;exitDx=0;exitDy=0;entryX=0;entryY=0.5;entryDx=0;entryDy=0;fontFamily=Architects Daughter;fontSource=https%3A%2F%2Ffonts.googleapis.com%2Fcss%3Ffamily%3DArchitects%2BDaughter;fontSize=16;dashed=1;" parent="1" source="YKVOImKXKJTCKOETU9b9-123" target="YKVOImKXKJTCKOETU9b9-113" edge="1">
          <mxGeometry relative="1" as="geometry">
            <Array as="points">
              <mxPoint x="847" y="156" />
              <mxPoint x="847" y="-276" />
            </Array>
          </mxGeometry>
        </mxCell>
        <mxCell id="YKVOImKXKJTCKOETU9b9-126" style="edgeStyle=orthogonalEdgeStyle;rounded=0;sketch=1;hachureGap=4;jiggle=2;curveFitting=1;orthogonalLoop=1;jettySize=auto;html=1;exitX=0;exitY=0.5;exitDx=0;exitDy=0;entryX=0;entryY=0.5;entryDx=0;entryDy=0;fontFamily=Architects Daughter;fontSource=https%3A%2F%2Ffonts.googleapis.com%2Fcss%3Ffamily%3DArchitects%2BDaughter;fontSize=16;dashed=1;" parent="1" source="YKVOImKXKJTCKOETU9b9-123" target="YKVOImKXKJTCKOETU9b9-115" edge="1">
          <mxGeometry relative="1" as="geometry">
            <Array as="points">
              <mxPoint x="881" y="111" />
              <mxPoint x="881" y="-195" />
            </Array>
          </mxGeometry>
        </mxCell>
        <mxCell id="YKVOImKXKJTCKOETU9b9-127" style="edgeStyle=orthogonalEdgeStyle;rounded=0;sketch=1;hachureGap=4;jiggle=2;curveFitting=1;orthogonalLoop=1;jettySize=auto;html=1;exitX=0;exitY=0.25;exitDx=0;exitDy=0;entryX=0;entryY=0.5;entryDx=0;entryDy=0;fontFamily=Architects Daughter;fontSource=https%3A%2F%2Ffonts.googleapis.com%2Fcss%3Ffamily%3DArchitects%2BDaughter;fontSize=16;dashed=1;" parent="1" source="YKVOImKXKJTCKOETU9b9-123" target="YKVOImKXKJTCKOETU9b9-116" edge="1">
          <mxGeometry relative="1" as="geometry">
            <Array as="points">
              <mxPoint x="910" y="66" />
              <mxPoint x="910" y="-121" />
            </Array>
          </mxGeometry>
        </mxCell>
        <mxCell id="YKVOImKXKJTCKOETU9b9-123" value="&lt;b style=&quot;&quot;&gt;&lt;font style=&quot;font-size: 40px;&quot;&gt;Control Plane Cluster&lt;/font&gt;&lt;/b&gt;&lt;br style=&quot;font-size: 32px;&quot;&gt;(Kubernetes + Crossplane + ArgoCD)" style="rounded=1;whiteSpace=wrap;html=1;sketch=1;hachureGap=4;jiggle=2;curveFitting=1;fontFamily=Architects Daughter;fontSource=https%3A%2F%2Ffonts.googleapis.com%2Fcss%3Ffamily%3DArchitects%2BDaughter;fontSize=32;fillColor=none;arcSize=2;spacingLeft=1;" parent="1" vertex="1">
          <mxGeometry x="940" y="21" width="675" height="180" as="geometry" />
        </mxCell>
        <mxCell id="YKVOImKXKJTCKOETU9b9-128" value="..." style="rounded=1;whiteSpace=wrap;html=1;sketch=1;hachureGap=4;jiggle=2;curveFitting=1;fontFamily=Architects Daughter;fontSource=https%3A%2F%2Ffonts.googleapis.com%2Fcss%3Ffamily%3DArchitects%2BDaughter;fontSize=51;fillColor=none;verticalAlign=bottom;" parent="1" vertex="1">
          <mxGeometry x="584.5" y="1149" width="105" height="31" as="geometry" />
        </mxCell>
        <mxCell id="YKVOImKXKJTCKOETU9b9-129" value="EKS" style="rounded=1;whiteSpace=wrap;html=1;sketch=1;hachureGap=4;jiggle=2;curveFitting=1;fontFamily=Architects Daughter;fontSource=https%3A%2F%2Ffonts.googleapis.com%2Fcss%3Ffamily%3DArchitects%2BDaughter;fontSize=20;fillColor=none;" parent="1" vertex="1">
          <mxGeometry x="-87" y="926" width="171" height="29" as="geometry" />
        </mxCell>
        <mxCell id="YKVOImKXKJTCKOETU9b9-130" value="RDS" style="rounded=1;whiteSpace=wrap;html=1;sketch=1;hachureGap=4;jiggle=2;curveFitting=1;fontFamily=Architects Daughter;fontSource=https%3A%2F%2Ffonts.googleapis.com%2Fcss%3Ffamily%3DArchitects%2BDaughter;fontSize=20;fillColor=none;" parent="1" vertex="1">
          <mxGeometry x="-87" y="960" width="171" height="29" as="geometry" />
        </mxCell>
        <mxCell id="YKVOImKXKJTCKOETU9b9-133" value="..." style="rounded=1;whiteSpace=wrap;html=1;sketch=1;hachureGap=4;jiggle=2;curveFitting=1;fontFamily=Architects Daughter;fontSource=https%3A%2F%2Ffonts.googleapis.com%2Fcss%3Ffamily%3DArchitects%2BDaughter;fontSize=50;fillColor=none;verticalAlign=bottom;spacingTop=15;spacingBottom=-5;" parent="1" vertex="1">
          <mxGeometry x="-87" y="994" width="171" height="29" as="geometry" />
        </mxCell>
        <mxCell id="YKVOImKXKJTCKOETU9b9-134" value="Platform base" style="rounded=1;whiteSpace=wrap;html=1;sketch=1;hachureGap=4;jiggle=2;curveFitting=1;fontFamily=Architects Daughter;fontSource=https%3A%2F%2Ffonts.googleapis.com%2Fcss%3Ffamily%3DArchitects%2BDaughter;fontSize=20;fillColor=none;" parent="1" vertex="1">
          <mxGeometry x="-89.5" y="1237" width="171" height="29" as="geometry" />
        </mxCell>
        <mxCell id="YKVOImKXKJTCKOETU9b9-135" value="Platform tools" style="rounded=1;whiteSpace=wrap;html=1;sketch=1;hachureGap=4;jiggle=2;curveFitting=1;fontFamily=Architects Daughter;fontSource=https%3A%2F%2Ffonts.googleapis.com%2Fcss%3Ffamily%3DArchitects%2BDaughter;fontSize=20;fillColor=none;" parent="1" vertex="1">
          <mxGeometry x="-89.5" y="1277" width="171" height="29" as="geometry" />
        </mxCell>
        <mxCell id="YKVOImKXKJTCKOETU9b9-137" value="..." style="rounded=1;whiteSpace=wrap;html=1;sketch=1;hachureGap=4;jiggle=2;curveFitting=1;fontFamily=Architects Daughter;fontSource=https%3A%2F%2Ffonts.googleapis.com%2Fcss%3Ffamily%3DArchitects%2BDaughter;fontSize=50;fillColor=none;verticalAlign=bottom;spacingTop=15;spacingBottom=-5;" parent="1" vertex="1">
          <mxGeometry x="-89.5" y="1317" width="171" height="29" as="geometry" />
        </mxCell>
        <mxCell id="YKVOImKXKJTCKOETU9b9-138" value="Control Plane Cluster&lt;br&gt;(EKS)" style="rounded=1;whiteSpace=wrap;html=1;sketch=1;curveFitting=1;jiggle=2;shadow=0;fillStyle=zigzag;fontStyle=1;verticalAlign=middle;labelBackgroundColor=none;fillColor=none;fontSize=37;fontFamily=Architects Daughter;fontSource=https%3A%2F%2Ffonts.googleapis.com%2Fcss%3Ffamily%3DArchitects%2BDaughter;" parent="1" vertex="1">
          <mxGeometry x="759" y="1430" width="683" height="206" as="geometry" />
        </mxCell>
        <mxCell id="YKVOImKXKJTCKOETU9b9-141" value="Control Plane Cluster" style="rounded=1;whiteSpace=wrap;html=1;sketch=1;curveFitting=1;jiggle=2;shadow=0;fillStyle=zigzag;fontStyle=1;verticalAlign=top;labelBackgroundColor=none;fillColor=none;fontSize=37;fontFamily=Architects Daughter;fontSource=https%3A%2F%2Ffonts.googleapis.com%2Fcss%3Ffamily%3DArchitects%2BDaughter;" parent="1" vertex="1">
          <mxGeometry x="1304" y="878.5" width="683" height="400" as="geometry" />
        </mxCell>
        <mxCell id="YKVOImKXKJTCKOETU9b9-142" value="Crossplane" style="rounded=1;whiteSpace=wrap;html=1;sketch=1;hachureGap=4;jiggle=2;curveFitting=1;fontFamily=Architects Daughter;fontSource=https%3A%2F%2Ffonts.googleapis.com%2Fcss%3Ffamily%3DArchitects%2BDaughter;fontSize=35;fillColor=none;verticalAlign=top;fontStyle=1;horizontal=1;" parent="1" vertex="1">
          <mxGeometry x="1575" y="956.5" width="388" height="299" as="geometry" />
        </mxCell>
        <mxCell id="YKVOImKXKJTCKOETU9b9-143" value="XR &amp;amp;&amp;nbsp;&lt;span style=&quot;font-size: 22px;&quot;&gt;Claims&lt;/span&gt;" style="rounded=1;whiteSpace=wrap;html=1;sketch=1;hachureGap=4;jiggle=2;curveFitting=1;fontFamily=Architects Daughter;fontSource=https%3A%2F%2Ffonts.googleapis.com%2Fcss%3Ffamily%3DArchitects%2BDaughter;fontSize=22;verticalAlign=middle;fontStyle=1" parent="1" vertex="1">
          <mxGeometry x="1601" y="1028.5" width="124" height="203" as="geometry" />
        </mxCell>
        <mxCell id="YKVOImKXKJTCKOETU9b9-144" value="Providers" style="rounded=1;whiteSpace=wrap;html=1;sketch=1;hachureGap=4;jiggle=2;curveFitting=1;fontFamily=Architects Daughter;fontSource=https%3A%2F%2Ffonts.googleapis.com%2Fcss%3Ffamily%3DArchitects%2BDaughter;fontSize=25;verticalAlign=top;fontStyle=1" parent="1" vertex="1">
          <mxGeometry x="1756" y="1028.5" width="192" height="203" as="geometry" />
        </mxCell>
        <mxCell id="YKVOImKXKJTCKOETU9b9-145" value="ArgoCD" style="rounded=1;whiteSpace=wrap;html=1;sketch=1;hachureGap=4;jiggle=2;curveFitting=1;fontFamily=Architects Daughter;fontSource=https%3A%2F%2Ffonts.googleapis.com%2Fcss%3Ffamily%3DArchitects%2BDaughter;fontSize=32;fillColor=none;verticalAlign=middle;fontStyle=1" parent="1" vertex="1">
          <mxGeometry x="1336" y="956.5" width="222" height="295" as="geometry" />
        </mxCell>
        <mxCell id="YKVOImKXKJTCKOETU9b9-151" value="K8s" style="rounded=1;whiteSpace=wrap;html=1;sketch=1;hachureGap=4;jiggle=2;curveFitting=1;fontFamily=Architects Daughter;fontSource=https%3A%2F%2Ffonts.googleapis.com%2Fcss%3Ffamily%3DArchitects%2BDaughter;fontSize=18;fillColor=none;" parent="1" vertex="1">
          <mxGeometry x="1779" y="1111.5" width="152" height="28" as="geometry" />
        </mxCell>
        <mxCell id="YKVOImKXKJTCKOETU9b9-152" value="AWS" style="rounded=1;whiteSpace=wrap;html=1;sketch=1;hachureGap=4;jiggle=2;curveFitting=1;fontFamily=Architects Daughter;fontSource=https%3A%2F%2Ffonts.googleapis.com%2Fcss%3Ffamily%3DArchitects%2BDaughter;fontSize=18;fillColor=none;" parent="1" vertex="1">
          <mxGeometry x="1779" y="1077.5" width="152" height="28" as="geometry" />
        </mxCell>
        <mxCell id="YKVOImKXKJTCKOETU9b9-153" value="Helm" style="rounded=1;whiteSpace=wrap;html=1;sketch=1;hachureGap=4;jiggle=2;curveFitting=1;fontFamily=Architects Daughter;fontSource=https%3A%2F%2Ffonts.googleapis.com%2Fcss%3Ffamily%3DArchitects%2BDaughter;fontSize=18;fillColor=none;" parent="1" vertex="1">
          <mxGeometry x="1779" y="1145.5" width="152" height="28" as="geometry" />
        </mxCell>
        <mxCell id="YKVOImKXKJTCKOETU9b9-154" value="Gitlab" style="rounded=1;whiteSpace=wrap;html=1;sketch=1;hachureGap=4;jiggle=2;curveFitting=1;fontFamily=Architects Daughter;fontSource=https%3A%2F%2Ffonts.googleapis.com%2Fcss%3Ffamily%3DArchitects%2BDaughter;fontSize=18;fillColor=none;" parent="1" vertex="1">
          <mxGeometry x="1779" y="1179.5" width="152" height="28" as="geometry" />
        </mxCell>
        <mxCell id="irQCuzZJ4Ze1SKZO0xTX-1" value="CI (Github Actions)" style="rounded=1;whiteSpace=wrap;html=1;sketch=1;hachureGap=4;jiggle=2;curveFitting=1;fontFamily=Architects Daughter;fontSource=https%3A%2F%2Ffonts.googleapis.com%2Fcss%3Ffamily%3DArchitects%2BDaughter;fontSize=52;fillColor=none;arcSize=2;fontStyle=1;verticalAlign=top;" vertex="1" parent="1">
          <mxGeometry x="-215.5" y="-1324" width="1080.5" height="292" as="geometry" />
        </mxCell>
        <mxCell id="irQCuzZJ4Ze1SKZO0xTX-2" value="" style="shape=image;verticalLabelPosition=bottom;labelBackgroundColor=default;verticalAlign=top;aspect=fixed;imageAspect=0;image=data:image/png,iVBORw0KGgoAAAANSUhEUgAAA70AAADFCAIAAAAXJgLKAAAK1WlDQ1BJQ0MgUHJvZmlsZQAASImVlwdUk8kWx+f70hstgHRC70gRCCAlhBZAQTqISkgCCSWGhCBiRxZXcC2IiIC6oosUBVdXQGyIBQuLogL2DbIIqM/Fgg2V9wGPsLvvvPfOu+dM5pebO3funTNzzj8AUHzZIlE6rARAhjBLHB7gQ4uNi6fhhgAE8IACLACezZGIGGFhIQCxmfmv9r4XiUbsjs1krn///b+aCpcn4QAAJSCcxJVwMhBuQ8YzjkicBQCqBvEbrcgSTXInwqpipECEZZOcMs3vJjlpitH4qZjIcCbCOgDgyWy2OAUAsjnip2VzUpA85ECE7YRcgRDhHIQ9OXw2F+EWhK0zMpZP8u8ImyPxIgAoZITpSX/KmfKX/Eny/Gx2ipyn+5oyvK9AIkpnr/w/j+Z/W0a6dGYPU2SQ+eLAcGRWQM7vXtryYDkLkxaGzrCAOxU/xXxpYNQMcyTM+Bnmsn2D5WvTF4bMcLLAnyXPk8WKnGGexC9ihsXLw+V7JYuZjBlmi2f3laZFyf18HkueP5cfGTPD2YLohTMsSYsIno1hyv1iabi8fp4wwGd2X3957xmSP/UrYMnXZvEjA+W9s2fr5wkZszklsfLauDxfv9mYKHm8KMtHvpcoPUwez0sPkPsl2RHytVnI5ZxdGyY/w1R2UNgMgzDAAA7ABdABE0QDkMXLyZpsgrlctFIsSOFn0RjIS+PRWEKOrTXNwc7BEYDJdzt9Fd7em3qPkDp+1peZhlxh5J3ARrO+ROSenioCQM1i1meC3GtKHgCnZRypOHvah578wAAiUASqQBPoASNgDmyQ+pyBO/AGfiAIhIJIEAeWAg7ggwwgBivAarABFIAisB3sAuVgPzgIasBRcBw0gzPgArgCboBboAc8BDIwCF6AUfAejEMQhIMoEBXShPQhE8gKcoDokCfkB4VA4VAclAilQEJICq2GNkJFUDFUDh2AaqGfoVPQBega1A3dh/qhEegN9BlGwWRYFdaFTeG5MB1mwMFwJLwEToEz4Vw4H94Kl8FV8BG4Cb4A34B7YBn8Ah5DARQJpY4yQNmg6CgmKhQVj0pGiVFrUYWoUlQVqgHViupA3UHJUC9Rn9BYNBVNQ9ug3dGB6Cg0B52JXovegi5H16Cb0JfQd9D96FH0NwwFo4OxwrhhWJhYTApmBaYAU4qpxpzEXMb0YAYx77FYrDrWDOuCDcTGYVOxq7BbsHuxjdg2bDd2ADuGw+E0cVY4D1wojo3LwhXg9uCO4M7jbuMGcR/xJLw+3gHvj4/HC/F5+FJ8Hf4c/jZ+CD9OUCKYENwIoQQuYSVhG+EQoZVwkzBIGCcqE82IHsRIYipxA7GM2EC8THxEfEsikQxJrqRFJAFpPamMdIx0ldRP+kRWIVuSmeQEspS8lXyY3Ea+T35LoVBMKd6UeEoWZSullnKR8oTyUYGqYKvAUuAqrFOoUGhSuK3wSpGgaKLIUFyqmKtYqnhC8abiSyWCkqkSU4mttFapQumUUp/SmDJV2V45VDlDeYtynfI15WEVnIqpip8KVyVf5aDKRZUBKopqRGVSOdSN1EPUy9RBVayqmSpLNVW1SPWoapfqqJqK2jy1aLUctQq1s2oydZS6qTpLPV19m/px9V71z3N05zDm8OZsntMw5/acDxraGt4aPI1CjUaNHo3PmjRNP800zR2azZqPtdBallqLtFZo7dO6rPVSW1XbXZujXah9XPuBDqxjqROus0rnoE6nzpiunm6Arkh3j+5F3Zd66nreeql6JXrn9Eb0qfqe+gL9Ev3z+s9pajQGLZ1WRrtEGzXQMQg0kBocMOgyGDc0M4wyzDNsNHxsRDSiGyUblRi1G40a6xsvMF5tXG/8wIRgQjfhm+w26TD5YGpmGmO6ybTZdNhMw4xllmtWb/bInGLuZZ5pXmV+1wJrQbdIs9hrccsStnSy5FtWWN60gq2crQRWe626rTHWrtZC6yrrPhuyDcMm26bept9W3TbENs+22fbVXOO58XN3zO2Y+83OyS7d7pDdQ3sV+yD7PPtW+zcOlg4chwqHu44UR3/HdY4tjq/nWc3jzds3754T1WmB0yandqevzi7OYucG5xEXY5dEl0qXProqPYy+hX7VFePq47rO9YzrJzdntyy3425/uNu4p7nXuQ/PN5vPm39o/oCHoQfb44CHzJPmmej5o6fMy8CL7VXl9dTbyJvrXe09xLBgpDKOMF752PmIfU76fGC6Mdcw23xRvgG+hb5dfip+UX7lfk/8Df1T/Ov9RwOcAlYFtAViAoMDdwT2sXRZHFYtazTIJWhN0KVgcnBEcHnw0xDLEHFI6wJ4QdCCnQseLTRZKFzYHApCWaE7Qx+HmYVlhp1ehF0Utqhi0bNw+/DV4R0R1IhlEXUR7yN9IrdFPowyj5JGtUcrRidE10Z/iPGNKY6Rxc6NXRN7I04rThDXEo+Lj46vjh9b7Ld41+LBBKeEgoTeJWZLcpZcW6q1NH3p2WWKy9jLTiRiEmMS6xK/sEPZVeyxJFZSZdIoh8nZzXnB9eaWcEd4Hrxi3lCyR3Jx8nCKR8rOlBG+F7+U/1LAFJQLXqcGpu5P/ZAWmnY4bSI9Jr0xA5+RmHFKqCJME15arrc8Z3m3yEpUIJJlumXuyhwVB4urJZBkiaQlSxURSJ1Sc+l30v5sz+yK7I8rolecyFHOEeZ0rrRcuXnlUK5/7k+r0Ks4q9pXG6zesLp/DWPNgbXQ2qS17euM1uWvG1wfsL5mA3FD2oZf8+zyivPebYzZ2Jqvm78+f+C7gO/qCxQKxAV9m9w37f8e/b3g+67Njpv3bP5WyC28XmRXVFr0ZQtny/Uf7H8o+2Fia/LWrm3O2/Ztx24Xbu/d4bWjpli5OLd4YOeCnU0ltJLCkne7lu26VjqvdP9u4m7pbllZSFnLHuM92/d8KeeX91T4VDRW6lRurvywl7v39j7vfQ37dfcX7f/8o+DHewcCDjRVmVaVHsQezD747FD0oY6f6D/VVmtVF1V/PSw8LKsJr7lU61JbW6dTt60erpfWjxxJOHLrqO/RlgabhgON6o1Fx8Ax6bHnPyf+3Hs8+Hj7CfqJhl9Mfqk8ST1Z2AQ1rWwabeY3y1riWrpPBZ1qb3VvPXna9vThMwZnKs6qnd12jngu/9zE+dzzY22itpcXUi4MtC9rf3gx9uLdS4sudV0Ovnz1iv+Vix2MjvNXPa6eueZ27dR1+vXmG843mjqdOk/+6vTryS7nrqabLjdbbrneau2e333uttftC3d871y5y7p7o2dhT3dvVO+9voQ+2T3uveH76fdfP8h+MP5w/SPMo8LHSo9Ln+g8qfrN4rdGmbPsbL9vf+fTiKcPBzgDL36X/P5lMP8Z5VnpkP5Q7bDD8JkR/5Fbzxc/H3whejH+suAfyv+ofGX+6pc/vP/oHI0dHXwtfj3xZstbzbeH38171z4WNvbkfcb78Q+FHzU/1nyif+r4HPN5aHzFF9yXsq8WX1u/BX97NJExMSFii9lTUgCFDDg5GYA3hxGdEAcA9RYAxMXTunrKoOn/AlME/hNPa+8pcwagug2AyPUAhHgDsG9SyiJMQUYY8j3SG8COjvLxL5MkOzpM5yI1I9KkdGLiLaIbcRYAfO2bmBhvnpj4Wo0U+wCAtvfTen7SsCcAMMtAVAb0aJe7CPzNprX+n3r8+wzkFfxl/ieb8hVzGvjWVgAAADhlWElmTU0AKgAAAAgAAYdpAAQAAAABAAAAGgAAAAAAAqACAAQAAAABAAADvaADAAQAAAABAAAAxQAAAAA6nySDAABAAElEQVR4AeydB5xVxfXHX3+7sDTpigqIiCICNjTGiNhjQREVu2JLTPyr2GOLNYlJNKZZYxQVFLFhL7GAvReU3mxIkb7svv7/zpz37t595bK7sLALZz7LZe6UM2d+c87MuefOneevqo771mUIFBBLF6SsTYLS90ZP8VF8vBHwzlX5UXy8EfDOVflRfLwR8M5V+VF8vBHwzm0s+clkMtKw3+8nEvLmQnMVAUVAEVAEFAFFQBFQBBSBTRMBMZedvhea506WRhQBRUARUAQUAUVAEVAEFAFFIIuA2s0qCoqAIqAIKAKKgCKgCCgCisCaEVjndjO7mdfthua8Pij9PEDybhWfPEDybhWfPEDybhWfPEDybhWfPEDybhWfPEDybhWfPEDybhWfPEDybhWfPEDybhsbn2xz69xuzuuG3ioCioAioAgoAoqAIqAIKAIbAwL+dX2exsYAivZBEVAEFAFFQBFQBBQBRUARyENA/c15gOitIqAIKAKKgCKgCCgCioAiUASBkufQ5Z1XV6Tq2iUpfW/8FB/FxxsB71yVH8XHGwHvXJUfxccbAe9clR/FxxsB79wmLj+6T8N7+DRXEVAEFAFFQBFQBBQBRUARMAjoPg2VA0VAEVAEFAFFQBFQBBQBRWDNCKjdvGaMtIQioAgoAoqAIqAIKAKKgCKgdrPKgCKgCCgCioAioAgoAoqAIrBmBNRuXjNGWkIRUAQUAUVAEVAEFAFFQBFQu1llQBFQBBQBRUARUAQUAUVAEVgzAmo3rxkjLaEIKAKKgCKgCCgCioAioAiUtJsTiUQgkM2Nx5PV1XG/P8j5G6lUykHN7/cT56Q9IqSHQiHJ5ZZA1uLFi5999vmqqhgVk8k0f5AiTg3igUAonfZxldtEIsVtKp3I+FLQFLJc02lKBqgYDoepFQyGU6kMtXJ0ksEgjJlA67aeuSSTSeGfOFlOOmVIJ5dEmOSWrkGq9p+h1rDgNNSw6muspfS9IVJ8FB9vBLxzVX4UH28EvHNVfhQfbwS8c1V+mgU+Je3msrIy6cDy5ct33nnn3XbbrbKyEkMzEonI0BKXCOYspi1Gs5jakkgKJulNN9102WWX/eMf/8BU/fvf/96/f/977rmHOHWj0SgFpBbXW2+9dcCAAXfddRe5BDGFIQUPYo6Xl5djNFvT2RjQkkUufMbjcUhRhYpQlroO/9ySSEmJCDUoUBgmR4wYsfvuu7/zzjvS2bW/0paEtSdVlEKOvOlRYwSl742q4qP4eCPgnavyo/h4I+Cdq/Kj+Hgj4J2r8rNO8ClpN+ORtU5Z44jFSMUwFYNYfL04hjFQxVuMOWv8xCm8zpim2KPGE0wkHI7utNMA7OOBAwdSXSjANGYupGKxGKWJMJDUt235iAT8oVTSNGfMZ2iFjDeaP4xyKcaVWlwhRQG81LQViZQJA5QUrvBPk8If7JEoXJElLVJVysdihqw3lJqrCCgCioAioAgoAoqAIqAIlPydbUxS0PH7jVNWbE0MYeKkc8WclQcXyji34m8W+5gqhJEjR55++umUJIsrhjL2MXSICx1uMayrq6tJtM0ZN6o0DVmCrZLGyU06lLkVaqRQl1sK0xAUYEni1BL6XKlFuhjl8ECtVCpBIt5w6gp9IUuiBkVAEVAEFAFFQBFQBBQBRaAUAkX9zcbHjBMWly2WJbamNV6TM2fOPO+88wYNGnTWWWc9+eSTmKEYrNOmTTvhhBPOPvtsbFMxhW+77bbjjz/+zTffxGy98847jzx62FPPTIiUR5OZdCbgT+HwDfgT6dTseXN/f8P1+x14wCGHHfrYE4+Tm/b7SIesY9FOmzZj+PBjTz755JUrV0IfC3jq1KnHHHPMKaecgtN62bJl11577SGHHLLjjjuedtppo0ePJjEcDs2fP/+444479dRTP/jgA0qyDeNXv/rVDz/88P777x922GF77rnXGWecNX36dJiHYZgkYDqXAkjTFQFFQBFQBBQBRUARUAQ2TQQwF90d9/I34wlmN4X4j7FZsT4XLlxIZQxQNgSTcsQRR1Dgiy++6NKlixi72NlYqF999RXGK1YpcQzrBQsWJJPGvyt7MyhTVVV17rnnzpkzBzczZW644YbNNtsM+5UyNEpuixYtMIJ79Ojx3XffYTRjAQ8ePJimX3/99S+//PKAAw6AOPb0vHnzKNmxY8dPP/0UNrCtzzzzTBiGAQrTBAR/+umnSZMm/fa3v8Xmbt269YoVK95991284Fj2tAUclKdpymtQBBQBRUARUAQUAUVAEVAE3AiI6Sy2Yp6/2XianaK4flu2LMMYFeOyW7du77333gcffTz0qGFsGL72uus5AIPNw/5giAjbidnVTJwsEtlyTKK55cQMf5Crjwx/UOKPjRs/e9Yc4g89+PDXX025/robFi/6Scqw7bisDKMZ73KEbwExzeEHSxd22YyBBYwpjI8Ze3qHHXY4+uijX39z4hsTJ15x5VU09/Kr/4MN2kllfPBwwaiL3n73vbvuuZfN2F9NmTryzLMmvf3Os88+FwqFlyxZOm/eN1Cma1jPTpc1oggoAoqAIqAIKAKKgCKgCAgC2J8S5LbGSs4DCIMSj3J1tdkTLHFOxmjbtm3Lli3PP/98Cq9evZpj5nAek4stS2EiQoSItEEujmG5dbJIZMsH6eecc07fvn1xOWP+cmSHFOMqEdk7gWuZ2+eff54rruLPPvuMyD777LPlllv++c9/vuqqqzCgP/jgQ7JokTjUoE8c+kOHDoWxPffckyvhqKOOgsnu3bvzAECxRYsW8UhAOl7wvL6vzS3sSVgbIh51c+RrvTXwKF/fLKXvjZjio/h4I+Cdq/Kj+Hgj4J2r8qP4eCPgnavy0zB8MCmdimBYcp8GNiUWM6XFMqYO5ibGKDsuOnTogPXMsXTffvstdidUyKU8Vikuaqo4Y0NE0rkSJAsis2bN4nabbbYR4hTr3bs3ey2IYC5DkyvUKM9ZHO3bd8DG/eqrr2mO9GHDhuGHJsLBdpxqh3fZ6Y9Qgz4p1lnekismslypRTpN4GCmOsVoiCpECDkidT1bAzpUgcNcxez/hSl5Bep4q/S9gVJ8FB9vBLxzVX4UH28EvHNVfhQfbwS8c1V+mhc+GIrCMAYewbEX83uBucnQikEp9iUbhamMOYvFTMD0ZFszBSjGFmTSIcEtWcQxiyMR44EmTkmoyWZiytDq5ptvTjo7m4U+xbCMIU4WxdjZXFZmTFsCtjsfAsIAW5xfeeUVbg866CCKvfTSS//5z3+w4K+//voxY8bccsstUKYYWTQNQc5vhiApNEFbmM4UIF3MaGFMsKAMVcitb6Ct+lapV3ml7w2X4qP4eCPgnavyo/h4I+Cdq/Kj+Hgj4J2r8tOM8GGwJAjPeXYzNnXWrBazVWxQinL70EMPYX0m47Fxj4zNpJIdNmu3RdcuXCOh4OpVK7/8/LOAL7N44YJPPvrQl06VRcLJeCLIERnJeDAUiMWrk6kE+599OKN96e369GZr9KPjHllVuZICU6Z+/er/XgmFg+kMPxloGHj66Qkff/wxFi23++23Hymc4PHCCy9gVe+1115w9fXXX2P77rvvvsOHHTWw/04Lf5zvz6T5SyXi0XAITuCT1sLBAKySDpPc8odRjvEdCuEmNztMoCzmte14tu8krjEA4hrLrE0Bpe+NnuKj+Hgj4J2r8qP4eCPgnavyo/h4I+Cdq/LTrPEpuU8Dvyy2MvblsmXGfYvX9qmnnpo4cSLnV3AOBrcnnXQSPd9iiy3Y9Iy3mLPn2Ek8efJk/M3IBJuGKSMBOti7FCYiYPG1391338125P3333/bbbf9/PPPqSJWLFdaueiii0h54403unbtyvd/lGFLNHWpiNVLGRLxIo8fP56PBQmvvfYaiY6/mZI0LWxQjFuMYwpgcIu/mQcAcqUYJRvmb6a6BkVAEVAEFAFFQBFQBBSBTQSBPH+z9Np4nRMJvpZLx+NmfzD2KNYnP4WN9cnRbxUVFRzhzLF0pFOBn9HGusX05LQNvtjDPSzlsUcxVUOcopHO+FLpSDAUZkexzx/I+Lp26nzPnXftMmBgdeXqzz/5dNjQI0858STSyaWJzp070yhXjo2z+ysyhx12aCrFN3wB+UyQRtmtwSHNFOOTQYz1yy+/HHsau5xGyRVbmVv2e0iXxKq2LLF5g/9NyPmYSSnqPKZAUXyEpF4VAUVAEVAEFAFFQBFQBDYhBPxV1fFS3cXW5EhlcsVZizVMhDM0OC+ZROxODFMScdySvmTJEqzVNm3acCvuW2uYmt3M0CFOIsUoIylClo3R3FKLW6FGYQz1pUuX46LGFCadihyd8eCDD/JhIlYyLVrGzGHPq1at4rDndu3aUZfCGNlY0uQ6EWmF1mmFQDFypSNE+IVBriRKLoVrBzGa67F5o3Z1vVMEFAFFQBFQBBQBRUARaMYIYCjCPYai9KHkPg0xJRNsF45GsXi5YoxigHbq1AErFAs4mYxbt246lTKWZdu2rblNJs3nd9S1hnKCFJrD8CVCCgYrudQVQ5Z0fu6EW8pLGeKEeDzDbhDKEOfXSe666y5+64SK/HYJZjGJOcM3VV4e5ZQMoUbHiECHXCkGWQpbrkwi/BMnBVIEClOFINwSkXTJdMWLR6Vi8bx1kar0vVFUfBQfbwS8c1V+FB9vBLxzVX4UH28EvHNVfpoXPliJboZL7kPAC0s5MTpx5WKPRiLGlUsiWVif4gwmjkkKUUoS50oQ25QItSgvm5upS6CMY7BSgK/0JBFLVwqTSApXKkJ27ty5/BAg+5tvvvnmww8/3JCwRGgCUsShhkFMYZuTPb6DW9K5SpBipDgmMhGCUCBCgVzZevzfsFp1b0Dpe2Ol+Cg+3gh456r8KD7eCHjnqvwoPt4IeOeq/DRffLz2aXj3qiB33exqwHqWvRbQR7AIHGEnrm5Xi423d6LG2s41t27bUvo5XIv/r/gUxyWXqvjkkCj+v+JTHJdcquKTQ6L4/4pPcVxyqYpPDoni/ys+xXHJpTZXfDBEpQu4WYmU3KeR6+f6/h83trWWs9sn4LLAaF7fLGl7ioAioAgoAoqAIqAIKAKbIAJiLjsdLzT/nazCCIWLli+VXkhhzSnsnaAQ2zBglCs2tOzrWHNNLaEIKAKKgCKgCCgCioAioAg0GgJF7eBGa60OhDGUsZjZM01ZMZ25EupQVYsoAoqAIqAIKAKKgCKgCCgCjYXAGu1m8SWba9rv4y8XatJzKfK/pLvTSpV0l6mJ41223w7yy9g4nvmSzxx+V5Pd6DHaatTmlL73ECo+io83At65Kj+KjzcC3rkqP4qPNwLeuSo/Gzc+2d5h1DatIJubrelszomDOXzPEmlajCo3ioAioAgoAoqAIqAIKAKbEgJrPE/DGNYuN3MWG37bzzPw1OWEupvmplaa3xe0uzLM5ox0hp9TmT9/ft++fYuZzu5WnOY0oggoAoqAIqAIKAKKgCKgCKx7BOpu1K77tktRlI0ZHO2M5fzNN988/vjj63erRim+NF0RUAQUAUVAEVAEFAFFYNNFoKTdzE4J4/DNnWtB3JfxZ9K5X8MO+BP88Ahe50AwmSbZj5nL72Nz+rLdaMHvBZqfL6GWQweM3eYv6RSQszIknSrsZIYCP3qS4hcKI9F4MgV9iNME8YzfcAvNnO+Z25L8WzbMpZHGVul7A6v4KD7eCHjnqvwoPt4IeOeq/Cg+3gh456r8KD4eCASvuurqotnGeDW/7RfEtJ37zbzRo0c/Pv5xfu+66+Zd27Rps2zZshtuuAGj9O677/70009btmy51ZZb8jOC7777Lgcwt23bFvPXWNqZzKpVlddddx0/ZXLPPfdMmjQJmj169GDL8h/+8Ictt9ySktjBd9xxR1lZWfv27fEu33nXXU899dSXX07eaqut2rVr9/3330+ePHnx4sVjx4597733um2xOT/NDVm4oqI164uyb8xrCcWz1zo1R77mS8m1JlmLgNKvBUfBjeJTAEmtBMWnFhwFN4pPASS1EhSfWnAU3Cg+BZDUSlB8asFRcKP4FEBSK6GJ4yMu2yJeW3ne8oeCq6pW333XPa0qWp999tmYvHfdefeqlZXVVTHcz9OnTz/rrLO22GKLJ598MpFK8zdhwgSsW4xmMAiHI/iD8ROvro69MXHSqaePHDxkv+dffOnrqdMouXjJUnzJeKzxJS9fCcnVgVD4nv/c12/HnS6+6BIsZqxneAC+6upqrORTTz0Ve33Mo4+w2Zp07G+MZvk57lp4640ioAgoAoqAIqAIKAKKgCLQCAiU/L1AbFOs0lgshscXO/jkk0/GSdyrVy+8y1OnTu3Tpw8bM4455pguXbrgJ/7kk09wCXfu3PmCCy7o0KGDnIBRXR2LRqMYvtyOGDGid+/ePXv2nDNnzmeffcZ3fpjCkOWK+UtbRDCFockV+3jkyJF0VuqSRUORSIDc0Q8+ICBAkwg/JRgMNpbHtxHQVpKKgCKgCCgCioAioAgoAs0VgSKeZqcrYjpznEXr1q0xYdl8jP+3Y+dOCxcvwoTFqiYd25eNE5i2YvJ269aNdOIQwbS1jmeaCHTpsjkp7GDu1KnLokU/QSoYDMu5zKGQOaEZc5nyJ5544nsfvH/VNVffdvvffvhxfiKV5I9NINCprk527Ngx4A+y9ZmSVCGwJ8ThViOKgCKgCCgCioAioAgoAopA4yHgZTfTKrYpWyZWrlyJ3YxxzKZidjbjUSYLS5cr6Th9JUI2/mmuuJmpaErb7wKxpKEQj5vNG1Tv1KkTFjmmsJjabLggTmGq4Ie++eabR40ahWXMfmixjGmI7dHCAG1BjTiBXGuXQ1WDIqAIKAKKgCKgCCgCioAi0LgIlLSbxQGMOdu9e3cs1DfffBPX77vvv798+XK2W6Q4QiPgx4SlAEYtdrCYwq+88uqsWbOJU51a8I6TOpaIP/EUG6CT337/3Seffbp1j+4Zv69Dp44fffIxW5+nTJu+dPkKDs0gfuvfbp85cyaGdd++/ThvA3eyWNsQxJIWJze2cjLDMR8+WiexceFR6oqAIqAIKAKKgCKgCCgCioBFoOT+ZqxhnMehaBnbJE4//fSHHnro2edfwJBlpzL+Zn6OBI8vFiyWKxEHzIkTJ3LbvfvWYtEShw62NXs5rr76aozp3XbbbdCgQXiiDz300AceeIADOjhSo6KigjIcqdGvX78777yTCBtC2LPBeR2kE8QQd7zOGezmNLs1zIkfrsYdLjSiCCgCioAioAgoAoqAIqAIrGMESv5eoLh4jX1qLFT2IpstyJiwnJ4sLLjNZQ+mFixYcOutt15//fWUp7p1IcexqqFPLWgSJ504V26xxSkphbl6UG5YlrRL3cYgDlml7z0uio/i442Ad67Kj+LjjYB3rsqP4uONgHeuyo/iAwIl/c3kiYiIfekYsvU1ZdnrbK1tPxaz2WKRTJICZQxxaULokyKB3RekN5JR26iUIa70BQSPa+ONrDSq9D3AJ0vxUXy8EfDOVflRfLwR8M5V+VF8vBHwzm0i8lPS31ybe/c2aGPv1j3gQl6xYoWcyCE2sXzbh5UMBFjPAoTcchXfs9Dntu4NaUlFQBFQBBQBRUARUAQUAUWg8RDwspvFlsWuxcSFg5yZWz9bVnZfUF0i7MrA5cxOZexpsZidvjkGtJMiDDi3GlEEFAFFQBFQBBQBRUARUAQ2FAJuR3ItHtxGLfYroVZ2nW+wkimLuWz3SQcxlzGaJdGhKRHTRu1ARRLq3JQWVAQUAUVAEVAEFAFFQBFQBNYZAnmGaEm7ubBBsWkL071TsJgJGMoY4lDgyu9ms9eZiASnOoa1FMjl5BdwSmpEEVAEFAFFQBFQBBQBRUARWA8IuA3gknazmLBwQ4QrNqxzrReLOJgJUl32LmM0S4pQFrJSoF6UtbAioAgoAoqAIqAIKAKKgCLQeAhknbi5YzG8ztNwmHCMWiKchCHpTqJTrGiEbwFxNnPFnUwE3zMViWBDi/0uBjqJpHB1jOw60i/aqEei21j3KNbgLKXvDZ3io/h4I+Cdq/Kj+Hgj4J2r8qP4eCPgnavys2nigznqDD2Rkt8FSqGc8ep2S9fvPI1SKNemX6pUw9OVvjd2io/i442Ad67Kj+LjjYB3rsqP4uONgHeuyo/i442Ad2595UfKQ1NMYi9/c85o9mag4blK3xs7xUfx8UbAO1flR/HxRsA7V+VH8fFGwDtX5Ufx8UbAO7dJyU8eMyX9zbW7tO79zbXp650ioAgoAoqAIqAIKAKKgCLQpBFwG8RNmlFlThFQBBQBRUARUAQUAUVAEdiACKjdvAHB16YVAUVAEVAEFAFFQBFQBJoNAmo3N5uhUkYVAUVAEVAEFAFFQBFQBNYnAnwX6HwaSLsl7WZ3ocbgT+l7o6r4KD7eCHjnqvwoPt4IeOeq/Cg+3gh456r8KD7eCHjnNjX54btA96eBJe1metXUWPcGujBX+S/ExJ2i+LjRKIwrPoWYuFMUHzcahXHFpxATd4ri40ajMK74FGLiTlF83GgUxhWfQkzcKWuDTx3P03A35x0vNMTXzXnPuVaVfg6J4v8rPsVxyaUqPjkkiv+v+BTHJZeq+OSQKP6/4lMcl1yq4pNDovj/ik9xXHKpik8OieL/NxY+jpEtXmev85uLM6apioAioAgoAoqAIqAIKAKKwCaAgHuTBt0tNM83AQy0i4qAIqAIKAKKgCKgCCgCikA9EVC7uZ6AaXFFQBFQBBQBRUARUAQUgU0SgXVuN7Obed1uaM4bFqWfB0jereKTB0jereKTB0jereKTB0jereKTB0jereKTB0jereKTB0jereKTB0jereKTB0jebWPjk21undvNed3QW0VAEVAEFAFFQBFQBBQBRWBjQGCdn6exMYCifVAEFAFFQBFQBBQBRUARUATyEFB/cx4geqsIKAKKgCKgCCgCioAioAgUQaDkOXR559UVqbp2SUrfGz/FR/HxRsA7V+VH8fFGwDtX5Ufx8UbAO1flR/HxRsA7t4nLj+7T8B4+zVUEFAFFQBFQBBQBRUARUAQMArpPQ+VAEVAEFAFFQBFQBBQBRUARWDMCajevGSMtoQgoAoqAIqAIKAKKgCKgCKjdrDKgCCgCioAioAgoAoqAIqAIrBkBtZvXjJGWUAQUAUVAEVAEFAFFQBFQBNRuVhlQBBQBRUARUAQUAUVAEVAE1oyA2s1rxkhLKAKKgCKgCCgCioAioAgoAiXPby4FTRM/V68U20668u9AUTSi+BSFxUlUfBwoikYUn6KwOImKjwNF0YjiUxQWJ1HxcaAoGlF8isLiJCo+DhRFI3XER89vLoqeJioCioAioAgoAoqAIqAIKAK1ENB9GrXg0BtFQBFQBBQBRUARUAQUAUWgKAJqNxeFRRMVAUVAEVAEFAFFQBFQBBSBWgio3VwLDr1RBBQBRUARUAQUAUVAEVAEBAFn37Pcqt2sgqEIKAKKgCKgCCgCioAioAgURwDT2bGe632eRnGSmqoIKAKKgCKgCCgCioAioAhsXAj4/X53h+ptNzsWdx4hN9G1iSt9b/QUH8XHGwHvXJUfxccbAe9clR/FxxsB71yVH8XHGwHv3A0lP5i7TtNESp5DJ4UayTgGGqVfF/lQ/EuhpPJTChlJV3wUH28EvHNVfhQfbwS8c1V+FB9vBLxzm5r8CD/wLCaZl7+58Yw2gUzpe4uO4qP4eCPgnavyo/h4I+Cdq/Kj+Hgj4J2r8qP4eCPgnduk5CePmZL+Zu8uaa4ioAgoAoqAIqAIKAKKgCKwSSGg52lsUsOtnVUEFAFFQBFQBBQBRUARaCACajc3EDitpggoAoqAIqAIKAKKgCKwSSGgdvMmNdzaWUVAEVAEFAFFQBFQBBSBuiLAd4HOp4HUKWk3uwvVlXZ9yil9b7QUH8XHGwHvXJUfxccbAe9clR/FxxsB71yVH8XHGwHv3KYmP3wX6P40sKTdTK+aGuveQBfmKv+FmLhTFB83GoVxxacQE3eK4uNGozCu+BRi4k5RfNxoFMYVn0JM3CmKjxuNwrjiU4iJO2Vt8NHzNNxIalwRWEsECh9E02tJsXb1xqZfuzW9UwQ2LQQaW78am/6mNVraW0WgNgKNpV+OkS1eZ6/zm2szpHeKgCKgCCgCioAioAgoAorAJoSAe5MG3S40zzchLLSrioAioAgoAoqAIqAIKAKKQB0RULu5jkBpMUVAEVAEFAFFQBFQBBSBTRqB9bBPo76meX33gyp9bwlWfLzxWbe5Ir31xbzuPDQ2/UJO6tsX1d9CDN0pio8bjcJ4ffEppLA2KY2tX41Nv7Dvqr+FmLhTFB83GoXxxsansMW1SVlP+lVfUNamS1pXEVAEFAFFQBFQBBQBRUARaK4IrAd/c3OFRvlWBBqKQGP7zBqbfkP7rfUUgY0BgcbWr8amvzGMgfZBEWgoAo2uX+pvbujQaD1FQBFQBBQBRUARUAQUgU0JgZL+5mQyGQqFAoFAKpUCEPNjKX6/c4idA1FhipOVi2RykTr+r+W9gVJ81i0+xakh2Ah/Op1G7ClBJBgMFlWB4vXXlOoojtBfU/F65ycSiWg0SivoLx2hFbpQbyqmgsqbN2yKz4bFJ791RJ0Qj8fLy8vRArLRXJYzrsQdvcuvVs97hw5t1bNqreKoZzgcJgkOuaKqXKHZUG2tRdzeqHwWYuJOUXzcaBTGGxcf9Ag7E23lioaisFxJJAgra6lfhf2RlLWkX/J3T+gGfYA6fMtVzAiuTpNFeZJ+usrku7QLCtQiQ2vcu6rXyuWmoLrSrwWR4lNP+amFniNgwChrLaJIkKWXXFnY8us0vfs8/YVtAh0RTp1IIeMqP2Ci+JRCoKnNzyKujhjDtoRIJMJijMzLoy8Rx3R2CjeFCPyLiQyHInjwT4pY+YUcFqhnfpGCAro+1oJI8RExqwWK62Y940NzSLvoKVw4ty6OmmK0pN3sqC5qTGdEmbmKPhPJ643AnZdob/P1tlgZd1p9vWJK341eYVzxKcSkTikIOdYnDiF0AZ8QV0JpOa8TzfVWCCuhrKwMhuEfnSUidkP9+Vf58R40xWdD4uNWSRQW8WYN5oq0O5aoyLzkevO6/nNFPeGNIJwTgWGu64gZlU9vIBWfDYmPkXu7zqKw8ME6i0aQIjrrzdkGzC0pNLLWMivBHN3gSgpvfoVXepUXNmAftGlFYJ0jgMyzjPHKReS8urqaJmQlXudtNQZBLP5YLMZkBP9i+pPSjPhvDEyU5saHgNuPg3gT0FzEXvSXK2IvKkBJbpsaAsIeHMI5VzgkEGlqfCo/ikBjICDSzgpldde8FCKFeGO0tQ5plvQ3wz3NyFxDZ6RXmBHo+TpsXkkpAhsagZIqyoarWMy86kULRAW4YnxuaIbz2i/JD6svwXE5E7fTU151vVUEmjECiDTqKQstoi7LMLcob3V1jI6xYFGGdIq5ndNNpM+yzsIwvBGkLzLb5HEoJdHivHS9VQSaLwI4ZvExI9tiOtMRImbdKinn9d2P0CjYlLSbaQ3W6QMROobFvGLFCrxuVVVVeYyIPucl6q0i0EwQKG53ykqG5Ldp06ZVq1bcIuesaqmU+dKoKYWS/IvOVlZWit0g8xGfODYl5pUXRWBtEZAlFqNTNJTtSWxurqiokH1KksiVYpQpvR6vLRsNqw9jMtXAGLMN74iWLVvGOktoGEGtpQg0IwR4wkUr2cjQokWL1q1bo7k8NIbDoWTSWJ7FQpNYv0razTLRoNKwvnr16uXLlxNv27ZtRUWLYp3RNEVgo0KAB0aeeKur4zwu8oERpjMrsfUDNbVuFrebWXfhHEO/Xbt2kUiYvjT5d19NDVjlp3kgwJtR/kS8k8k0nh0COovkI/9iN9MTIk2wP7LOCnuOzrZv3z4ajZT0uDXBbihLikCDEJBDnlhnf/rpJwxodJbHXc99DU3bbsZKhnvMf56A6RJn+nTs2L5ByGglRaC5IsBSy+q1aNFSvLadOnVCHZqLv/mHH37AU96mTWt7+pYxLOiIXJvrYCjfikDdEEDOlyxZunLlys6dO+PExYaWV6bs2Whq1jNuZl4Eiad5yZIlGA0dOph1Vo3mug21ltpIEEBnFy9eyhMvD42ss9jQJTpWKr1E8cZJruVvlp1T8lSOuw3TGZXGa+VPp7p06WRWXXzPfj/HYLLH2WxzJoE/Wy3jl/9tiovX1X4f5aVKraNgqSUtOYVZ17PEnCSNKAIbBgHsY+usYl0zJyPOn7+AN0rYoc4+B9IbgzNnXa8j/WTGHEzrTxtmUE15E82DLlxjNARzzmhxa5FbxXZtR39lbjJVA0Z7RR+5SsTWjfmT5IR9AVMqY5NMzFHVtC1ck27yNCgCGxqBZCqDGYrF3LFjR7Y3Y5jKbqX1q7859ctHo2btT2bMR0S+VJJ1Fg67du3MOuuh+xlfIrfSQjyAptbQMmosq7Ckpcj1o7saFIGmigAyLy+FkPlU2rdgwQIieJ2tLDtM18h4fddHh0QdI3WkX0qxWYPNbjAe0NmkwRtq66kyCyZaiMXM0psNpMmf3MuKK3GbLoVrypPllCeiQRFokgg4ygx3CD/7NHgURimc0Ehc15c+5S2HRvHEOObKmyK7J9vwKBOBXHkSRh9zi6tLE0253K1ZjmtmLagHzT0F7NXEsiGr66rFOUD0/6aDAM+S7JhEEUQpWJ4dzZJII7HqtFJH+swzrLMo5qpVq9BZWWdFW0tQQN+sflp9zN1kVTari1lVDVqfVQkymqwINAEEnHXW6qlZZ9mt5CH/9dWv+naxjvSN19gjQAVzoWXLmj3NEU7ZQzvtHz5m+yBgLtlFNau4hiTLKhkRWV1tOuWdkIvWWoxziU4pjSgCGwwB1jO0muZZzFCB7777YYOxUrphzpZjlmEXhuUz66lib5XorJ2MamlV1Oojmsj/HH5lvcU11FO+tMm3Hq2Azzixs57mmiImRhlUG9U1RGx5yc/eyo1eFYENikCLFuX4m60KmNMqRJc3KEclGy9cZ0sV9ede9JrnZaOrjgLy5ie3mBrtlhdEkl2KmKYrAhseAZ5p5ZQ2RJpnXXR2w/O0Jg5ymlasHA/BTDfk0B/r1TJOaKOrVl3dNaBSa3HOFTHUpXxBlWx1qjl/booaVwQ2NALiCoILPjkygm/DhmaqSPsZc0iA0T/HSrbeNVOSFKngFBB9FG01qikxCvnRdKPsecHSxbzOTRR2AqBM7r5mMiil4nkE9VYRWA8IWMet+fFqVjGjHjY46rAeGKhjE+JsFs1FiWWegdmS1Y3SmswadSsom82qKVGSmGYoAhscAXmgFZlH8OXV0AbnypsBL3+zzDKODmdvefmDorqWT7faOqpqEp21lrhZlfNta1Mkt1ZnLW/u3eQooUER2HAIuIR/wzHh2TJGM2pk+USHzNk9xFFVHniZgzAapLZ0xC7Ptc73SWMA8yGDUTtTstZ+KrGNXSrtRPM4KpWeV0xvFYH1iYA8MyL5/OKnKIWV//XJgjyIZnXQNpz/aOpP23c/VlXF1rdMllwFUzbHKmx2rczpM88HpgUu/KGSUrK2Rq/PvmtbisCaERBpzz09mvKSknP4rJnC+imRp5Vulc5nwF3UqnSNyqKWMgHYJKumudqk88d7omyC6LFzSyqVcyutLWnuhFqOhv6vCGx4BFBmllvnlQvq4JihG565fA6MuolxLBGMZsdpBec1xfnK0Sqt6KVoqaihKSO66ailU88+J5MsemrqQiZLqYa2xhSBJoIAwo/UyytTUWH3ctZEmIQN56WWnW1qeC7FoWik0WAb45JbaF01VDFdYGi0KSMgD7SulcvYzYQmyLObsZL+ZulPHvcm0SbJ8pnNFb8yGXY9lkQK8PhLgguA3I4rKcGhm7ny/F9E+bPU9T9FYMMgIMpsll7WoZysbhhW1tSqe6IhDufifKKe3AoBa/cb1TS3Vm3pFi+QzJ39K97NnNEsKm6Km9I4tE1FLqLj9s6kaFAEmggCsoo5j7tWo0Va1yeDtVbLwoaFSctbdp6ReGFJUtAy+8lFVut4riexllMZvbZdRK/Xf1eL8qyJikBzRyBPJUvaqyy3TDfsNeFqnc1mAXY6TzX+zErppOWWTaFYkq5DwlrVFEPn11zYqaURRWB9IYCqIP9Oa9yiAk5w0tdtpL704YqAs4qKRGBGKNhILZ0l3SQabcvtVxbl5eposXQmp8tyRy6Lc00RJ+ZEsuXchZwkjSgCGwABWbNoGLF3NlCiIKIdoguNwVZ96VPerrDyq4GGI1JEkYuyV7NWGiWVUyCloLXOjUpmH2iJ5emxlNOrItCkEEDaReDlHZFoaykO66tfpeiUSi9FXziUWkZnveuTSyEp466JQhqdlBx7w3mZ5s6+IfInM/IaN4PVwUHQ8tqI1Rc15yE4ewqHoSrF5GrvfZwcRAR7Rdp1Iia3WJDy8iZO8sXWcVKgk5dSjIymNTME+OJHOGZ8nbEmRdJlxN0FJMURZslyF5MU5ypZjg7nlAAZNoczilBxJVBFrk7dukRs1axmucubKcQGd6JHHD5zNYxGcuvyrpmdGwSpLhHOi6XVrBrmlJEl1+yHphyudXuiBjeUMUc32w4yTQgVM19IImdx8JcLJtfQzd0X/C8QibZKpiDsHkdJpyQgExwaUleukk4td6LEnfIaafoIiCTIwIkMECfI+BKhC85tA7pj9zRn1UEkTYhAUxREGkIpSCHUt4lStYy+2ZBHkPIkO9rKLWxwK+lkEcmrUvQ2Zee9tH3bkzYHNPPtPgUhZeLyZ1TcqmuGE3HXURAMHSQlAoZOxOFfIgKvuxbpkrWOOKofGbed4GbDkT0hR5bTx6INOP11cqWnzu0mEnGPrBsxQcNBFTzriI8MijWdjSJwKyl5eIpycc1Lr+9tfenTC6cKrdesfHkNl+KsRhFdak6U8zKzio9Hi7hdh/mJFPMrKRjKZqsoLdC2WYizvaaa/Nm2JcoB9dxhrwgDEimKoDBMeQZJHtklRWwdl/Xgz0uRYnpt1gjIyTUIhhFi+/UbccRMjFpG3JEZKSApxFFysiRXBKMoDpLllERiRSCj0SinvJHLbxrRLgGCwkxROh6JQtCjQF2yaBoGYEMUm5/UJuJRMeT3JZLm0ZRAp6QsEX4hJZ1M2R9SsE+txm1l/oyKYppTmB9oMHa5hU4UWNZmU2bNQTqLtgryVBCEHeikALlELK7ZHlFSqpBO18gihVrcSmESpe6amdASTQYBmedFVmVMYU2GXgZUBl0EuwFch0LGoBRSImksE9xKWzREgKwjbw1oQijUvSJt0Wt4EDZQW27hh4gERNsujlavStClXxQ2z73YyKGg2e0IBQoHw3YBNRYz7initOJ3fveoBLW6JwuGXGVc6DsRmJd06EiKaTSXBZ9Snivgk06oe4vrtqQgL2jDhvSCJpz5hziJZMEtnJdqXXpErhlFO3uKRJUqv7GmgwPdl6uDgIgEV0HVjHdudW4ADtRtQK26V6kXfdMTG4R+SbtZsinp5gNErAc5lyamrn24pZz8pdOJjD+RDvBcnIj7EtU+juNLZMweUaxbs+mZP/OgLHVzlOR/WfDlYYVR8RBfp54zSERINLLsejIgTqKTJRGnrkaaLwJ2nLMGk1lIcvaWTND0S0S3cMRRdbLcglEKBMpYTckqgTSB0SyTAo1SgERuRWJL0SmaniVaNK8+ifDAtMUVNqCZSBhHLH0sRYMn2ggI8ASbNNawWVjNkRyoSdJv1l8O2GC1M1ofT8TN7JBOsAM6k06itvi6QmSx6lhvtJ0KAuZEDieYeiWDqLODlQwNnAuSUs2BhVz6xa10kFynp0JHrqQ7VUo2rBlNDwFG02FKBJhbEQlZhhlWGVluJd0pX5eIeGewlpATETkedIUg1IgI2QZQltaFVDFOUAeXRrhKoJV4PaVpWOI3iJi3wIEU+BSCdhEzD66uerWiSV8Kt5TZu5xO8mfUAtyM3uKCBkCjwkZ9Myl8YvFM9gm5FokG3cCno7kQAD0HATB0hszBk4jMQlKL2ck94g1iYa0qCZMOVzAPyNwSZAigLrdEPOZPukNd+itBqq8VZ82zsjOa4CBgSj/cYJICXEDUgC460tWAunWpspb0S34XWKptpoT8xTEHCxKYzMR5XuPXE5L+dBXmsplC+Iky49aO+EJBFDydCAai1mdUuwW7dAslsUsYDynhjETtCtk7+k8BGTyJkCEKkAcNZRo2hEXb1cQNi4CMJgPKKMs0J4MrwiOSILlcCSIhREQqPGZGp19UIY7mB83GDJPMkezhsDG7TWLO/qZFh6xTd31G4NO60owRL1zF49WlGTCdQlHxFJmIL5UJZJI+/oyzOeGLsfrKz4wFw8GYL278dhnzPoey9JTFhoqgIR4vKOTPBh4NWzwxEaSIgCYgG05yTymSC8gYGRSmgKPXtE4HqUgZ0injZEktvTYXBBi+vNGEcydFlFT6IsNd337h8MGiFDrILQpLi5aUsZOQIm4dmiJ7zm1jROBEJg14INC6sCG3ZFEAuRY/lZu3Amb4EjCdSiaCobBV20yVL8aPoWBI87ueoQAvhZK85TVPuaT4672+FzSXTYAl4QqGBS5uiZPN1TJfMxWTKMiTJY8uAE4iFYVIluh6/w+uhHkiwpKwCp8MgUxNxGVoinKXt75Qhh5t8H4VZbVRE2UczXJg52HAdIMgIgEDApdz26gsrU/i9darkHFNoSs1k0525TQHUZqZKuaLff791I+nfvb5zK+nzZ0RTKS32arnbjsOPH7IsVGfPxxAw5NBDGkWXvNY7F54zVG0PAQ6Am3ayT3LeoBSKLhOLdFeRpQUhlBuPUhpVnNBQFSRq6OuzuAmErwAlWkazwEdwj2Qte4ow1SPOGD0xuPJSKSk/At9KudmfCOWixYtikbDZWVlLVu2lHaZajHvZBLZINDBp7U2jDuHn/ZcvXp1dfVqXGslmUFz2ZkcMprHygo41b5q/vvk2y8/nzX50xlfTZ72dTQQ3q7Htrvu2P/IvQ8N+lqn/akQvxuYSUT84WCAl5jY3OzaqIfFLMxY8M3iKvoInnDuIEw6gVsHebAVkAVermQ5BSjMrWSJvSWt6LW5IOAebgYatkXXSOdOzFprSta8VW9A13744YdIpKyioqK8vBz6EHSkCGrCQwPIrqmKrI92rXQVRVzpKb1jMYIN5BadJfCga7JSPJoaIffgSs5Zp361L/XRt59/OvOrL2ZMnjprBu7g3j22Hdin/0lDjm3hC+OrCvmwol3LtIuNBkcdjYNCKaUTeKUJ6YiF3aiqO6vBPDSsohUqY7ULG8K8XBkPEh0LDyZFDos2JIWlXw4aVC9aeONOFKC48sgh8kx/HZyJ42ZiJQIxgWtjQsNfVV3zq4ZiXJiliUdDu/UZUObOnbt9716saORyazdWkW8FRYqS4edtbgqXFcr80MuPjHv5iUpfLBHB4cwlEEaB45kW6ciIXx4z4oDh5b4IT8ZhHowd49s2jD0DXeYFhsFId31kEcaoy5VaItnECYagDURK6TlZGpopAjLKzhDTC7vQmt7ggrWLEAKQjZNon8pEzGtKmtJFgnnWQt6NRFk/EBuPkMzKypUrVqxgDW7Xrh2VRNiK1F5fSdJ3ngEqbcCgb9OmFTxH7JNDUS7M023AGM2820VnE774Q68+8vBzj1VFUskob4oyyXgi6guVZwL+WPrsg0cefdAwXhahsOY3t3m2BVAUK3valWkhCygx0mtuajUOlKaktYwloxA6A7ct4GSJy1lu8/RXCjdgrqjFlt40MQQc/bXyYmSN4AhG3ZnN6WwaEVq1iodJ8wamffv2zAlCBJpCFpFDwNySWfdWipV0m1A1djNtoZXIMA0F0SRrVSxfvhzbAp2tqGjBU2LY8pYn53lNoK24mRO+9EMvP/rQi4+tDsVSoXQ8ncBwCaT94XSoLB4+6eBjTjrwOFQ4ZPwGbn7yiNXv1gJmNFT6QmVYJS42k6QLjCSSKykScTS6fk2uu9IOA2LkOYRhlSzHUOZWuuAUKIw4ZYSUQ7mw5KaWAhR02bHB6oWMkRmr7VOmTOvZs2fWwswiWKNHGwpSw55r/QpeddXVDivuJQ/xIZ3S6HbH9ptxx70RKXP4hYllF0gTZ5tVGut7tS/+8JuPj31p/KpgdSKSjrPqhlLxYDId9cdYi/2pr6dPDZRHem29TdAXRpvZJmQa4c8GVmOi+ALHjBmzdOnSLbfckuYIjphmy9X+j7GZP3/+1Vdf3bVr186dO7/xxhsTJ07caaedGDzqUtap/vDDD1OyV69etQnoXbNEgGElOKMsY40wVFauDoXMZkHZpIsIoMuUtBt/WUnweZj+sjmZAjlVLYIA06mlb/zVpnAAA9pUtxZz2+XLMZ5XsOCx2LF4wEYREp5JEBeePUutORM6FPrxxwXw0K3b5rjVUCv4zGlVAQVjUACIOeaGbRho7uhXHxn74uMrQ9WJskzMX53IxH145UK+ZMhXHUzNnDzX1yLUq/u2IT73NZMZ74H58teYztmZgBbMIbKwYZMcfa7dMp2V/jJG8IyCP/jggy1atOjQoYMDBQUAc+rUqU8//XSPHj1YzG688UZ8/DvuuCNl6KDUpRi3xImg1D/99BOFidduUO+aAQKiO3KVAZVhRKjjcSxe9u+iyNmZvF79sVqO2cjW4VDLluUtW7aiFUQlGs1+zosIQVDEpgHC4whtAVduORQuTBGk1zGz0FCYYWElsUuXLq1alcMkPMh05M1S0nwvlHrgtXEPvTRuZSSWjKaq06v80UwiEwuVBVcnY8lgZsqMqf5IoE/3XmzYwOtcwGHDE2AY9oRDJkC0jwmQLkiKg4ktkt2XIsNKRXKdAg3nYC1qwtV//vOfV199da+99oIThuB///vfM888A4ebb765cAh56UupdihMSXLlkR46cluq/MaaLjpL96WDgAYgJPLyBEDEeU+ijH5dQbDKv3jxT/ikrC44qlSjR3UltaZy9RVF+kJwqJZUqlJ0nR4YGpYOKbxtTfiSj/3v6Ueff2xVpjrZMh3PxDJBY5qw17kqXR2KhjNxNmAlH37iUX88c+L+x6LPQXPkVf4CD+h//etff/GLX+yzzz4wKmyUYsaw4PdPnz79ueee69u374ABAx577LF33nnntNNOkyqmr5YIt3fdddd222138MEHO53XSPNFQEYW/h3/wdtvvz1+/HjrZg4dcMABv/ylGWh0+aGHHvr4448p369fv9NPP122cGBZYk97mLsOfYhQmKusanJlqVi8eDHGX5s2bVg5mB0oUN/gIdV1J4W+YFlizXfq1EG6Iw8MJSngMUb/zRqNERwY++Kj4196IkYPeDsUSFiNNmdcpTOpeCbJvoxkyD9m/Lhgwnf8/sMNTerx2RHdLXhSkJmhZmopwYEAC3qoOXbzDjvsIAVlQaI7n3322Z/+9KfBgweTPnbsWKaCY445hloCF1cpLy9///a3v/385z8fMmSIJOq1uSAgo8kgstzydLRs2bJrrrlms81w0PhXrFh15513fvfddyzDGDS//vU5pNe3X7LGOe+X8Lu2b9+WuULWdcQMgkYR1iLUS38Rb/HL0mX6RX9pWXRWJNrhRUS9FF98kDD+5ScffWl8ZSieCKUS/liAPVkBvvFNr05UBsvLk4n06kxizIRHo9WZEw4e5vNFS5Gqb3oeXDyE/PGPf8RjxbxaFE/6yyYZPFmDBg3q0aMHZfIo1JeBtSlP04w+dsIXX3xx3nnn4fLA6L/++usRsI4dO2JJC3Hh0GNk6QW5GN+83jvyyCMpz2gypmvDW3OsK9MvUMjQr1q16p577pk9ezYp3bp1GzlyJKgCjsBFBwXYevXUYxTqRadU4bWhj90sC6B74ZeUGn+Yo9JwwNd+EV8wlObYKh9OKb5RCGIz+5IrfVUPvDxmaXhVJppJphPhSDgZxyiOpPyxlulQy0o/L6EWR6tWl8fufeXebXfceo8uu4d85ZyjQ2BjNFc/2zY48wpavPyhKg/oZq8zSziLtfFvMdeRATNyFbuHXdX7DB780suv4p+mfCgclZOkScckZ/8kIm3iAf+q6kRq3X0nYfjWsOEQkG0YyIA82rLWjhnzyK9+9aveO/RlZ9Htt9++y6A9Ntus7Rtvvf3JF19ec/0NKPCf//znZ1986YjDfynvcO1eBYQvjajZ79wQLPMWVTQizS4FNnj4fMuXV02fPeunxcuR906dOvfu3rVtmwoyO3buOGv2vLKWFWgD8wNKKGAUTBBuzXLhZZUqW8eVXCpain6scmU8Ftu6Z1dEHWrLV1RPmzELg551evPOXbbaevMObSsMTaM4nPqargwkwj72cITjvvQS34q7X31weXlVmt3LaEoyEwzhrjKfCZZnysJVgbJMZG6bb1v5yu5+4a4d+m8zsOMOLQJlgQz7NVBXQxWKZma0cwgU0NB40mwuF910rBZKyniRgiaa25Q9W9YfFB3nnFno2KufK3+xeLLdZptNnPR2q1at4F2q8AADBQaOs0B4CU2XUumAdUr6E3ZbjrSbZczuNLNskqChqSAgMi8jmEhkXnzx1UwgGkv6+eMlCGchjnlsPGe7XHfzHyLh8D/+8Y9xTzx9xhmnG7sTx7NZC7ILQS4SR3/tuIfMZnkj6b5ly2LT58xaumR5OpXo0qlD9+5bbda2Apnt0qXDtJlzoi1aIrjIG6oKWa6OclF9LfVXepeTOruSmteoZo0zKmj+BeLxylWrVmy77Takx3y+VavjM6fPWLx4SSAT4PVL7217VFSwldEEOwPxv9Ax1xn+Bf+ceF91WYqNlGadTISCkXAKT58/GfUHQ6sS0VBgdTC2PJS+4/UHOuze7cjN9jOECoJoCtw6SioRdqOhWXKFvCygZia06TX6xazGrpBMsDqWYHGFDlkOdFTkHAXOCJk77/vrrr/5+ut/36PnNjLrJqjDMNqVncGELzCRUFPd3kPEtmu220m7TuvkC7eUkY9VSCFOSLrmH0nhyryEpOHU/899ozkQqUXLlvFE5t33PmL2eP6Fl1q0KDPV+WfGxwaMbMshs5Z93WESpXVp97/3j8ZGPGIodjPt5kZb6m5cVwEk10NZy4wciruKiRrg2Lv34Nhx6O91N/4pEg3ioERnzz77LHPqi5FdM7DoNZZYjg5gonfGwrSvXU2yibugc4TBlVaXqNWUWgWLr7/1pe9MEVKxsJlabRbesF8q+2lCNg8KRm2efPOZuJ8vUo0DOxqOxKvNcV08ilUkI+F44IRjR1xy8aXRUBS8OCBnyvRpbsrA5gCKiPMog3D/+993Dh48+JBDDr3jjjspTPp///vAwQcfUlUVQxP442HxlFNOI/2rr6b85je/eeutt4yRbedBxJ30lSurbrjhxp//fPDBB//y+edf5nOu+oLlZlLjTQoBJlNGGYUkIAyoMUZzv359eYvBExRiwBMwuR9++OGBBx7YfrM27dq24lUDjmej6j7fgw+OOf+Ciy648OIJEyZkjWarukaYTTBTNldE6P3331+yeClJ0Pzxxx8/+uij5Ssq0QGWAV4n0YoxHEX7ES9hyLTgBKMga//HxhP5yyPFxs3WbdrQGLMSRvMHH3ywZMkSfHhwMu+7bz/55LNlK6rItXyZZ1F2KvP4afZK+NJPTnwmGUyHo+bTjSgbmOk7T8HsV8SBkgwed9Rxl198eYRnZELA//GXn9YovsXQTHOg4PNVV8cPPfTw227/+1/+cjuviY48ctj9999vlxw/WowK87Ei40WTv//970899TTWHpz0TA4rV6684oor+vcfeOqppz7zzHPoLFlwztRBASifccYZzMIwT/q999570EGH7L777scdd/xXX31FLgRBnpJ//evtQ4YM1Yk/ygAAPDtJREFUOeCAg9j7QWKKOcZ2WBZmSmpoagiYxx6fj9cOuO4YZQYRFWbQ+Pv8889PPvnkVhXlfLZ74YUXnnTSSagb5sv9D4weNeqiSy655IknnqIY0kLIGc32xorlsuWVqPmiBQvRAsQDneV2xcrVFEYecF2zQUIchI7aig2NzIjYGLo1ob7KW1PTHaMJbqGP2PPxrnjQMcWWr6x87733fvxxIczw5Au3777/3vLllbm6tl+5G/5/6qNneawloKzRYCBi1AqqwSganAidcMyJl158WSQU5fC9VCDz1cyvXVVrRZk3WBbvu+9+8044lZkxY9Yhhxzy2mtvMC6XXXYlc+mECc8fcshh++677003/XHVKvTXVJ81a8555104cOBuxx9/4owZM2BDkKQj7K487LChZB199HEvvPAyRjNPRGg3nb3tttuOOGIoFi0U8PiecOJJu+6663nnnf/pp0wpBnMJbPWmAPMG1y++mHzooYeNGzf+3HPPHThwl1//+tfz5y/gvUS/fv1R86eemgDbYFBVVX3LLbcMGbI/6aeddvrMmbN4aCf9sMMOu+2222+66eaf/Wwv5v+HHhoDP5D9y1/+gvzwMHDiiSe+/PLL8H/00Uc/+ODDVPnoo0/+7/8u6Nu336mnnv70088ILIza3XffA1A77TTglFNO+eyzL0in7ywrvA85/PAjHnlknJj1EN+kgrirQANNBM/Jkycff/zxbdq04ENAhgx/MyecxhNp1tlRoy4ZNerSCROeEXwQFYJonBHjZhJyQpo1VPPVco29iOKsso5heQamPE4C5P2LmZOr/XG+WjBn0MWTIZ4qAyEcvW1Xhc84/IQjBx01e8bcTDzNW+JMOPjp1K8ALNu2G7ocV6+++hqyvu+++4HyLbf85f77R9PQd9/9MH36TFJkxpw9ey5byFEzAnsimQ0ZBUaCIUGUGUuUdvTo0d27d99ll12uvPLKBT/MNwa+ho0CAfu8a1zCBK64ljGaf/jhxy++mHLnHXdt3nWLLbt1I/OH7+f36N5T1LNL564/LV6CPr/37odffjF51IUXnXP2r15/7c25c76BCHIlngMzE1ibjP9nzkTeTOAMWByknAOTiCfnzJ5rhNDva1HesroqRooxKM0rkSJ/5uO7Yn9FCzcgceWq1ZwVIHKNCySeTMaTeIBCGA3YIlzZxSTd4coCGUnz0yOc7uZnZ/NHX38SD6Z4vctik4yncEInkvh2yqPV0VOHnnTMz4bPmzYvZH/7Mx72fzlnBhsrzWcNoGneNoG7mf6wUtkz+vW0qf/6178mPDuBHTK8wWSFY+MgRdgECYbCAHiy+H399VRmW/bPhEKRv/zl1q+//vqII46gDBbShx9+TJYADufUmjZtGrtQYPvJJ59kX8fAgQPPP/98jK1hw4atWLFahpWsSZMmDR48mJfCf/jDHz799DMO/TAzMlNBzfM4xDQ0IQSsuvkeeeSRnXfeefMtOrMvCHFl0H74bn5ZpOyD9z648IJLLhp16f3/fYAVmqezt956l9n+wgsvGjnyzEmT3p49O6uzdgnOriRWGH3z5s3D7UJXUWNZmJkrECSb4m/ZogKFFZ1FftHNZILnLKSliPKSWFR5SSxVnkbt9OGiZlGnCVOLL3IDwZUrK9u0MV8Vw/DsWXMRdX6gBCHHpEahuEWRbSW5ZHtn6Pp9X0yZhsuWmQgzO1G1mlc/6ZQvnImWxyIjh546bLfhc6d9m6FHRi0zH037xEWnVpT9KrNm8RptMVRROp7/sYPZPcK4YLvzMHPttdeibltvvTV7gm+44QbWU5wIZ5555vPPP7/vvvviFz/rrLMYGhCGc2xQNmzwfREPORAZNWrU9OmzO3XqtNtuu2FIbb/99vvvvz+TzIsvvjxq1MVMs9imeLtGnnbGd99+T4sSKIkAiBkaizFxzfzd765iIxxfK73++uuoPPPDCSectGDBoksuuWz+/EVU/Otfb7v33vv22ONnI0ac8OWXXx1zzHF2k22arv39739nbmFaYLrAxbZs2Spa+f777zEVgJ3dX7DHVH/QQQdts8023377HQ9vkyd/fe65v8UxB/3XXpsILOPHP4H5scsuu11wwajvv59/7LEjGDtcA/QUNxxzHV+wwTMEN9aQleds9+hntqvM0qRxofuLFywM+QOffPLJRRddzvg+/PBYxBgR/OTDj6ZM/gphANuJEyfOmfMthUUlkRlI8bzXTHGzT5H14p3+8mfmBicYKD/7+stg63B1PFYeDvXvtcNXn03GqRUNRk848tgj9ho6/q2nxz31pL+M+SEYSyUnT53iVM6R4jUPlA0pM4/4/WxL7dlzK1ZHnh1ZkkeOPIWfahNFpQxrMHExkRkJq3JmRHj8teuub8mSpS+++CLPmnfc8U8Ko+o8BtU0qrFmjgCjz0AjAAw6gSEmvPvuu5PeeZ9l8thjjzX3duGU6Zhibdu2Ra6qq42bU3K3374XvhCpy1UsZp7EkCwKMCn8tGixjZBidhQQKMO6MmBAX9LLysyLEV50mAzhQ+i6rqWmhqLlIV403UUvP7pNj24cjcccxt+CRYvIBpmUeb1obEd00OzZEH0V5xBbT8ybM8qnps2Z6eMdDK/ZEpmdt+s/c+psY1KnAyOOPHLooMOeefe5cU895m+VQc2SAd9nU8yzrlF+esqbVtwMGU6nM4t/MmVO4mvVohVmUNeuHZcuXc6yxHJ71FFDGSOsAa4CMi6lnIPKvB/v1asXVi/Y4qtgsyDb03fddRf4l17Ymdm8SeCNOpMyvcG27ty5I0rNois0aZfXC8wVvGzde++98ZPh+Ri4c38oQF8khLiGJojAlClTv/32W4aMgWawkBOEhActXKHscWe6Zuh5cfHoo4+edOII4qwLyEDfvtv99a9/xlIRPSUFFbNXo7B8b7544SKjR0YwzYekrCm8jlq+bAVRakUiQUxGdNZk5QIySeu5u1r/11t/zd4utKTWAikU4UqMjq233krUgXSsOvg0BchGi7Hl/YFFPy2GOVKNptlHVHtnSk2bMY1NYuylCvsDA3YcOG3K9AxPoJnAiUOPPWrQsPFvPfbYhCfYSAWxWDL29TTXOmtq1wSZP7mizTyWgAABGOGFK3Hszr333pPtGdjHKObvfvc7Phzi0fSqq6469dSTIbTFFlug4zSEfdm9e/f77rtv77334a2XfJCAL/m4444G1ccff5wVfNiwI2mIXTcYqQ888EBZOHD44YcfcvCBzz77LPvXzSiZRlFYM8dwzCUBWEaMGHH99deQ8rOf/XzhwoWvvPK/li3LaAsbnc14TDX77bffkCFD9tprEMRxH7A9DzcwEwLSgsWP8PACvH///jDPi7gDDxwicwsEzz33V7yFoNj55/8fuP/hD39iUcDN3L17t9NOOw3eYHLw4F8ghxRmPzQ7fH75y18ytyA255xz9ptvvmnrnkcuo+YsGdxuIkGUS0QXGWb4wBNdZi1AEhCY40ccw8MYKIEYOstrAfPbPlkxN49qpGclvxlCVm+7OeU3+0GdrSjotsHCqDUH4rKDgh1XmRN+OXzgSb+/6Y4/9e2zw4H7HPXwpPGPPfNUMsKXgcaHxLF0Ebs0sjfaPH7b6lnoLJg4HpB1jGYSW7duwaMq6+LSpStZdGWyoxFGAN2WyY75VMYAWowT6USmTJnCqAwePJiSqCU6I9NBMxwjZbkIAowmc6sz4YpIYHsNPfKob775js/FOF2lZ8+tyyKR6tWrzdaEjK9y5Uom5PJocP8hQ2bNmPG3W2+F7pAh+w4deiiuIOREiGA0o+xBazpTgFbMg2I21MRyKWv4v9gCaqoUJ+Ruag2EIYHqmLc9LLH51EyayS0S+IE/TAS7eRvNQF+ioQiHrp9w8PCdT+1/811/7N2717CfD33yraf/+/gYflowHAgncEUHwqhV0PzStiVs0TefJaD56ezD6qBBg7p27gjtdu3a8OaUp1b0ldLmvZNtk/p2nTbMkoryshThhSJ3hx36dOu2FdYw1RlYvBFc0WKyrFXk22+/A8aOfXSvvfY+9NBDWZgxnTmFADroPqdtVFSYHYpE6NaypUuNm9k+gTTfeZnubNyBweXNPlunysvNwxfuUXQUWeKDLTQOg6l37x4kM9z4Mon8fM+9Jn/+JZ8o4D3hS9ChQw9HT5EWM9fXJ7jdyk49SXRua0WQ8GIhX+OkjFGHwgrCIbrgGdAmq9F5hczLHRuEbjpVxcuvcFk0UO07/pfH9Dul75/uuLVPnx2H/vyIRyc+NubZcclwqjoQR/yjbAjPGup5JLO36BhLqllJ4ZrXSsb5Z9wQMrViNBMHXTyyEydO5LUVPnt0luWY+qSjg1hIxFHS3r1785ngHXfcwYMQ9hNqzvYMqufWa4NWLBaHAmfwXX7JpSimacUX/GryFDzE55xzDpYoZUjhe7K33plERaYm3NUkQofJoaKiNUYz3GKvU5fnK7LY78GZGDfffAveAUxwUjB/kR8K7LHHHuzzIYW3zTSHxR+Lwb75hg8iBPG1EUGKOIULxnhUoF2q04tvvvmGrMGDB2MCIm/MVEw7QMG0Az+YKNCM218AoPuIoqG4iQWAkgcGvkoH8BHHH9dr2+5gwPvDV196GUSGDBkyffqMP//5L0D9i1/sPXToYbwbYRUgAJqVARNfp0G0rNGHo952s+2kXS9z+kwKH+bv2Gf7D+Z+7o+W++KpJ596ZuDIAdf8+irk8z/vP/nYs48nwwFO1eCHAnm2zcRiO2w7IPcYbZ6mZTWWmQiFRLiRS+fTBASdFPFUiUoI0Lj6BHq0lAIkItAUQPQZFaOWfj/PoHaEsuNkMjRsFAiIJCAt8tg1d+48Zsa99toTKcJnwDs4vpvu0WNrTmxlEsQsoyRvP7m1s56PmZp5GafII4+M5QTD3XbdmclUZgGMNuZB6FClQ8f2C35cGAoEE4gjRhmerXSG8iJUuK5lFXfcGIXQIomFiYZpmbyL5tUpMTs1fDNvdnUsGWafo9/XsVP7H+cvTCXw6Zrdw2xNxn3EJmyKwgQtkmiWUraqmG96/Tts1+et6R+zfEUCIfYd7jyy/xXnXMJi9/jEx8dNeDzTAjczYACDP5gObN+ztyVjuwMp41KDjjlUjqUWBECJPhnadk2Sp1nROGNz83musZ7NukUEBZdiVLaDaN3k5j11Vv0FAwrDNon77bcPzmzOp2OZZAcIz0XE27VrTbOUsYpvzHfDDDc2EFlrkIWSXtc9AnwGh62D1DGaDBNygkfqhBNO2G57c76KvCNCnHgbzszPkEYigfPPP7eyMsbWUt5RoIODBu2KUJmNQzltssLjw/DilTpSjull+MbR4/Pzul/ELB5PscxjCYkE0i6BdaSUqDjiZEi5QqnyjkfJVdaoBNsZuIrJNm/e3JyQ+tjwwPsrGDCa5GOvFKfFpzt37ERh1iqrTC5KPl/f7XaYOn06e4A5qOqpZyYMOH2na379O05hf/Stx8c9+3gixNf4cfOzgelAOpbZqa95LVYq1OiOmevM/hA6BRNceXrBuW8chHYI+I9R4D0AKkYtmboYGqEM73fffS/D1717T3bd4OhlqwxVKGZmBWsiU1LWa+gwIzFt0hym7Z577okGMxzUIsV85GjdktSiLrUsP2Jj8fIM3sz8QK60fvbZZ0+cOBE67JcQC4EqzBkybzB52fnDsMI4RtkPbrspszf8MPQQ5A9rmwJ2dTCTBlxx9BbVDzxwCI7nF3KBaeeJJ8ZzCgo8sHyIXW4lxFriAsemcRWtQRZAidOl6LR54rV9Z+AQFfNMG/T95jfnoLN8sfDoo4/wwLPrzgMpwpMS7hIiMri2UjO7FCrmGjqA4SDosDqh2PyhwNTZcdu+ERblmPku//0ZUy6976YVvvTYt54a88QDiWAsmVkdwKuViqPQrYPlA3pvb21l05adVLJs8BAieotBwwMr0CPTvHznm/rOndtzahX6wNYlEilGRHTYqIWdeUknWL3yYTOlUgk+uZBEvjNAvhlsU0LDRoEAg86YEugNkyZHELIDEpmZN++7xYsX9ejRHb3dY49Br776ytKlbLpb+dJLLw4atDuFX3jhlQcfHM2st9NO/WR2ljWVSZ5cyJqr1Wo2EiByzLbYpcZnnTYWao+e3e0y51tdVVlWzkewIeMoY8Es9oc5W/QPEV6rP9TQ/vFkyOswvlyG4V49evImJ4pJmk5Gw9j6MaYnXEG2U1yMZcknB+YgZnMoRbB3z+0iAbM2xn2J92d8eum9V8d8iUfee+y/zz2yLFydYg1OVrE7pSxcXp4I7dq7X9QcQWecuWaDJa+KeEEJOQOP2eX80Ycfxirj4M+Ky7YK3paWlYVat24NfbZOypqHzqKecMKqQy2+uRT1XLhwCS9eWau4ZUTE5qYYCmsDey4Xb7XVVjfddP0777x1ySUXfffdN2+/PYnCbOfmF15AmCcDLGjDih1LhIKIFQ3TcQ1NBwHGij8M2csvv/zCC8+/+OJRDCiDxqdabIStqIhiQj3/7DPVq2Px6uQLzz274w7bI2nPP//SffeNxt7itQaGL0IlkkO/kBDpHW+NUHmqU4wTbtgDzB9ZmGJ9+vQhgjysXlUZCaGy6Ahaa3bAh4PGL1tMd41CF1VeEkspb61JQNiy6yTzhzWaWYNSLGd8jUMmjG9jdDacSfGa1Gx44Dft4RYrkFwzGdkgiEm8X/f+kXQZW1pS4cA70z6+7P5rVviWj3vvsfsnjK6KVCX81cEQP2XEA6+/RbiiX+8BWRIF//Fkgg6y2Vd0ZM6cOYDAn1HlFL8Us2LWrBlUgsO33ppIYp8+TCS9eBT5+OMPBfkPPniPfJl+x44dC+yYl7fccjP7OrJaa5+TGScmZ+jwe0wc+oaNe+21V1566cVXXXXF1ddcuf8BQ2hl5MjTrr32anYh//66q6686jIDOyer4KoQEHgxzTTEjykyZ4EFbabSWGZMGpMmTWJH9Zgxo2+88fdsEqAtpgDEAKs2yo4cxsluQbGrBLvFjKiIXW4o50xzesdOZepecMEFV155+ZVXXsZnEjzCYcB///0CxuLaa6/54IN3L7qIaec7Htugw0RqzG67Z51RExCguekE0GMmF8nEB8+RNU8/8WSsKlFVGXv5hRc5XRQheeWV1+69978tWkQHDhxQFokadcPs86OPxnXCWIB84wQmBOevUVpogL/ZvE+zi6b5nwAUUNm1106PVY/PlAerM4m4P/PxrK+GX34iPxaY4hfIkoloeVmsOl7GdFaVKk8FRux7FA/WAhrQm2BmMImZK1qB+rFL9fXXX0e3Tz7ZbKjCiAHr6667jq/vMaYXLFjAV8moPYnkipoRQTFI3GqrbpzojI+Kp1t28fMxPlk1cy03GpozAkxV7tHs3Xtb3vlyhCTnkTGp4cAYMKAf/Rs8eG+MNmZkytvTu/cnke9dkJ8LLxxFHCHh/FEiPDeL10nkEhFi1m1T0WLQHrvPnDXbnBIV9HXq2KlXj63atG7JmksuDjPcRYgfnDhTp5sryFoFtv+v3SWfvrFaEXvjd+GZoEP7tnyH0aZ1i91335Vv7JYs4fue5FbdtsDWbNva7GewOms0he91KclnBljAg7bfddyEJ9JRsyJVZ5Kfzfpy+O9GsOjEI3jqaDAVLAsFU9HUquRmmYrj9h3GayXpBJMmus/nVOYLPCJJ80jKi9rf/va3Bx528EsvvfLNN3N//evfUBjMMYJvuukm1iG2GPLDQzh1mFJBCWZ4OXvJJVdwRMbDDz/MLMxrUKqQzgjK8wy38mx8880380HSjTfe2Lfv9mzBogCzAbkO2tCkogRLRFxNRDU0RQRYO7t124JRI9g9kOnu3buz3waZPu30U//193+wJ5UpHWvsuOOOoxiv7P/5z3+ywZ3yrMps5COCkiJ5SCPjzlU0d7O2LXfZZeDM2ZzGuBwTsHPnTj2792jVyjhHobNk6U98H5xKJwMcUIMXh0366C6tYqzxSGn27bMSZeMmxWhZvYLLFnDRwVyWWQLRxQHEbt327Y0LvE2b8p/tsce0mdOWLFpCWx07d9p2221bV5Q5i6ETESb23H6PCY8/G2kVWZ2pSoaSn8/+8vgrTuIJOh3xV3NEbFk4UR2Lhsv9qzNlvtBxPzu6FOs8WrDV+I033vj3v//dsUPnW2+9FficNZQ4+8vPOOMMPMdPPfUUEybLKF5YfIrsLUaLKcl3usBuO8UBf104aIhXB5BFVamO2tI7xpR5xH5+0OLII48YPnz47bf/45prrt9///3ffPP1sWPGYIyeeeZIYZLyDChjxLgYm8y8aDLzDCnmqE8zYxijgfWd8jQEMxTAdH7lldfB8+67787xY5YGG8/2njiwW/rm40taIVCXdClx0EEHwCTea7pM77AxBg8efMcd/+b8DTrFZ5EsE5zhQ9NMO/DDM8Rbb72FQLJ1e5ttetBctqVN6T8ApLv2Yc+Hhfavf93BkzDrzpZbbn3sscPJ3GmnHUHp//6PHeTBHftu328n8/YDyAUtqd5MAStpNyMKSLwIhEiz9BBHlZER5JurlRYuUV9gYLftRh5+4n3PjeH1cNqf4NSNeDAdS/H727EQJ9HF4y3C5dUrq9sFK44/OPtT23mQQYdxSCR5jxbdeecBWCS4IpDUww8/lMdT5tZDDjno9dcP5/0stxhGe+45iE1XaQ6yxFbmZQ9WD6Nor8TQjrvuvPOCCy+86647UPKLL76YM6rqPwnm8ai3TQUBkUxnwkIVDz74QP6Wr1jFssSkbddUo6LMyzyGoaUy4dIBPvL4/e+vkamZY8WlS+i/u2+8iMN4I6Vtq5a7DDSGNe9G2YTA4eRUYLfGwkWLWpZF8WlEQ0HzitBOIoaCzMomZoPZalwk5NvBRYrUTqrhzs76Zj0xe0DKI+FEWXThjwu7dOlES5jOu+68kyhstmOWjJ2qzPM9R9+Yaxp3VXC3zjueceiJ/3npkcoAmhpnS3ccT046FQgGQhleHZlDbiOVgYpAdMQBwyrMqc+QNH/MfRjK4VCQFpMs2jYcMXRoojo+6sLzW7ZsdczwYRecfx7sHXjAfscdO5w9gh9+8B57BAftvisbByFstnNkUmefdSYfGz33LKdKBS+79OJDDsbrA2VsGhxwcXqMMSyRKy6/tHLViquuvILe4K676cYbd9geizyFV0kWe+YHiLBaE+QRqDZ8ete0EDCDmxNptPVf//qH8Iep2al9W7yPnMpCirWNjEp17LgZOitl7AqUXYPMJh4j0ubqBEznAf13Mj+sZdcosY6QCj5gatWinPcT/CU5QZr1grOfU8lQEFeLrOfoFUYz9VB1ey1hN5fUX6udDicOHb6XwtSjUVjlQ17WOM6eM78NEfC3rojs3L8f0w9P4yHk39qOULDwwIMNua3PAzpuf/rQk+578eFUOBTnF7axD4MYlzzkQrZ8dVVVeVlFZnWyla98xIFHbFb6xwKZ/dgsjqXIpl6evbF7cC3hpEePuIWxo4466tprr4VbzGXMR5jgB3n5QB8jEncs75Ewkv74xz8yDzAcl192GccmXHLxKNJPO+00DMpEvBr+O3Xc7KwzR0L5issvP+zQQ8/77bnsiMASHT36/kg0dPaZZ51xxulQFjDtLGI6yy1OCvMKwFi5STSa10pl5RHuERpjU5ij6JNl0fAf/3gzz+S/+tXZOAhOPvnE+++/X0xnmZHERGMLDn98nsx48mZBnq8ROQwc7AE809Dfc4/db//brUABt0wj+5rT925AfujRiuVLr7n6SsjyhuSmG6/vtU0P+jv0iMPeeXvS3/52Kz9F2bPnGTRn+N6UAoCI0iGuANKpY/urrvodX9yGwoEyNutaPxJLEjqbTHAkccRZXkVTLWAi28WhK6lf6wjktaTvr6q2m8Ds7CA9MC9JECh7A3Xen27f2zxj5XIN4/IgzQtXEvkVQESd3RqVvsRDrz/+8PPjVgaqYv4EzqpYMhGMpJKxdLm/LJD0twm2PvaAI04ffGwL890zT43GLhGyaIQEnvDjdrs9t5WVVcg0s4wzlZDIWbAMT/v27WQ2NAtw7cBqihVt9cNQX726indSpOBrw6jOzrm1q+jdRoMAa48ziSE2TjCeVpdlTJZR+FovOZyyNREhkPthaZPO2xWWFtwbzOjsombuwCjHUndcNTWVJSaf+zTaFQZw6PLuBSHvskVXtIlTM/lc3WEjq1/m3sxTbNPGMsZoNmuGL7XCF39g4vjRz47J8EGBPxlPJ8gR/1sgUl5VHe8Wb3f0wUeevv+xbNIo86HMTJesOVn6bBYB73QyzXvw4489/sbrroulzRFgMMNaYvI4q8P8/KoJ2A0sV6xfDIRcKUmZ5ctX2O0c2RFxsiTXGU3SAZlNKei+UKYAkwCDKLdc80ZZcimmoSkj4FLT7FDCrUzvsso64yu9QKQdqSjsl1BD1h2ylE8kM8t+WszCgUWIcLKuOQs/kikWQCEpk1JfzS1OxVj26ClNcyVO67yfwUTr1LUzNeisqKzIMMtXjkzObubems4o6Upf7ME3xz3w/NiqYFV1Ol5W1iKVSIcDGJf8cFHAn0i19rc48aCjT9/3+DJfMOKzr5ty5Nz/0ygwLly4qFMnftrNeJpQTEA78cSTcTO/9dZETmQTteXlgFORWjzSsFUGXWYmdPwOrNrAi82Ne0JGTQhKK4lEbjewnT9XVa7giYgNKtAHBIaD6QJMcvZu1iajrpCidXqHMQA+IgwiAMz2PIrQbuvWFdl0y6hTkUSCTAsSp2JWQmz3sQekdejjFuVzQyZz6YIQpDp2CLk8rhOHH+EZbhlK8cVAgV6Ylja9IOMrqDLi7NEPWX8TA2Ve34Au57cWB8fIth35rLTLuLDZ0u5TqlnCGMCmhmtJf3MpRo1ioWM54aNLNoF7TpmLHr/v0fyK0YPPP2I2jHOsLadrVPlbBMKhZCiaDA/f76iTBx9bbhxXtGtewRDkatTAgkMkaj+DRRYrWhqdJ2KeFxkfI7WBli3K+DOSak1gEWKykGyzogd4sWuMZgaQOFchwoiSzNXukKK4ho0TAfdzEWLgzMVmY4IrGHmrlSB5Nfpp5Y2NCRTEC2MeqatZezOZyhUrMd1Y/+SXC0hhqcB0Zk53ka+J2l/BtFOAeIzW9RWxZ+7mMyl2a8yZOZvXqdigsmLV6p/VUtgK8euedMZok9nO2NIfPvEXwwNJ39hnH42hNxxDhyeHHRr4ZlYHyzMVJx04/Lj9h/NrKXxHaPxhIXPGqgkWKvN2B2J2N4VZhEMcJWu+NAc9gkyXLLossRlznB1Xuzbbq6FhnRasebI6YswwjebixrKBgrNK8aKV7x2jUXPwrSyE7kUXHBgCeTQybdufNRZShlsNTRgBt6AiRAgJ9pPjEOHWaKGnrZwVRwply5oEKPDEyz5UPpXBHuIzWTbs8WYSgsgWFPkT4m4G8nFCYeujsxl0KS/Y6sgqk4Z5MWU2DNAhPxMIOjtv9jcoLEfQcCiUMU8z5mcRLYGauShLDwseRYv720aiJ+9zLAvvo88/vtIfSyeDyXQ8nkiWhSMsvtF0mJ/XPnnf4yK+Mo6uyuPFuRV94ZaDHbmi1KI71ilrHp3BpEU5v1OWtVwpYAfBoNq6VUuq8DwMwyiapRnANxWJGMuSQOE8U5VeA7UxjvnoPxRs06o1IEhhW944ltFf0WiZQLhSRPikFWcqEDZIIRth4fOGSLhCKgpBmf3gi5JZnl0P6pQ0FQl8O8nUbp+gIC4TOHMRcaFDCWkdp7Jl3iRLu0QggCNAUpwqpsQmFhgjwBHtxMRiiQAAo1BWYMzykMPTAlMg1c0Trnr7m+XtFVoFAGwPy2JkpinzbMGHvXFfcrWvavykJ9//4tNZc+cgXttt26d3r+136dN/YNe+rbCKqcfcgnAauzobjDkuf8Hs8xwZyCjVGRWjQDZY8bXvAKzgyi05duSMKEsxt84wpqLzuUwpoteNE4E8SZBOOnKypj7nazUGszw3I1FTZ0xnbm0RLeNTPGxlhI2AiEKTSCnKxm5uzMDhUfBAgAfMd0wEvC84QrbvYz4HzAZRM7vushvZHLzMD85nOJHOx/d9CV+CHyuq9lWPe+OJT6d9OX3W9Fg60Xf7vjt077Pzjjv/rHM/XAj8NDfKGvJFIEhXebtkegxZrrwgSqYeHPNwn2177zloD9zVMJOnsMIG6UTIkuFwF5MCRcdOsgqvVsfNSuxkyYoIEWm9zoPuENBIU0FAJEG4cQ9xaf7cmms0DtkUncWmQWFxIlaUm5dCWEwiGCKHojheTdRTf0vZzW5plDiMoae4adm6kEhg3sf6bLetcGILiNIW9Jij1IPpan+q0heP+VLj3nzyoymfz547iyeBvtv17tOj12477DywS98yfrQ3Ezaraunpx1FAMTS5WnuSTzBfZBoZPnwYAOYWXsOGFCCCzonR7GaOwhDkoUAKcMUbzQOzlJElOA8EW7JGf6Wkc3UXdlh1IhSTAs5VUkT3hXNp1B13aLrtbBIlHfHAByG2ssMGJYkzWJSRREdaSLFd3hQ9zXQcHNxQAA63glHeoAq8Fj23npoE+zCVLS51m4W/uf52s7F5ecSwINRczAtv5CuRjpv5yFjPvK7FaWWOu0qYB3bW3QCverk1J27g/MunYGnxnMpToP1Uk6szKiLlXEkx9OXJNbc8Ozogku3UYmghSnlH2fJUooZ9jW0sCDgqmicM9C8vhVsC4lHQdSM2di0xE6KROvP7c+a3A7t3704VBIxAxD13cFtARxIK6Zco2KBkVlx5VwhLogiwxd4qvn8vSo8P/tBB9kJxijpqic7yi2n0Mu1jPzEHa9B37GtUGIMc95c/aq1je2vQYC00/jImOgqaHpulVXZr8GUCW72dGdPRSgoBDkE00YKXZVU4JEuYp4A7IrmmDXaW2LMphRRlnIqWsHlJKkSksIwpKdw6haWKXps4As44uvksmigFROtyUmc01wYE2IQp02egsywCWKhlYetptsImEoJQUWZNElJf/XV4MAw4gRZl9ZFGuYUlu23D+Fl5mT1nzpze225Des72KNFuhqdeX7Xf/EYpeyP51U9eilnXEKqYwicVMrZuOsjrWH7+BE0vQcZZE4nApADicCu5DuxOYaeARKQAV4JDwV2XdOCVK1UKI3kEqUt5gtNiXsSZVYSUc+vQccqTQpyrMOY07ZRkOCzaprm8XG6FDllOeacMEUIpsk75TSECDgIREfrrxN24ke4elDxYHAqkZ3V2o9yngRzaniORYj1nt4gKNOEAHql0IOOPcuSr2SNtJwHOxzagsBKzL9IcpwlARiAFJzeQqLnfnG/CQkiyAze3eYnciuBSxskVaXZKSgGmJwwLISVk3Q1qfCNDwNFYJ+LuoFuxixZwCjtCJcVYixAkZ+VD0ihAIIJoieA5ddcuYjXLmKUoWqlrTQvCBjJPEqzCDKuTuZYMZrsFO6cynPTK2ZD2xQ/8R/wRWouafc+sx2Zt5ldOUEfzO0ZsfGQ5tjsgcSBB2iiueQNn/0MT+TFFX4bXr2YjOIds2N/s5OpoIowJb6KSpppdkIRtSpIiV4nADxGuUoxaUlFSuBJIMURzdKRR0qVdKS+5kNLQXBAoOmR5iYwy3clLrNVBKz6UQMAozLdlvCBi8wEqTC0CiQSqiJygLyTWorCub+AE+1hsNRolIoJqjeaswooK8JBoeSzOASpBRsT+Uic9ivrY1JjlnB5J1+gOW5qMipYO0l+Z0CgldalIEJZIpAy3XGGYiFy5JTiqTTolpUdUlLjU5eoOshBLQ1AQ/IlIGSEIHW7dSzYpciutA5FTkaYFQ0kUykIBItwS5wplItKiNCclqeWwQYqwIbWIOzSlsMOn4ODcCgXnVohsglc3Ak5coAMNZ1A2GmT+v72za3LiSKKowcOyBhNrCPPg8P//XRt+8L7YS4Qx2MAAuyfrdqdK1dU1akZiNDO3jTX1mV11lFmZXWq1Vu9/Wp9haHbc/RR2NW88l3gXFS1WEJ6VD5NKu2gWuhg/5ksf7p4KOySGjmzaNUpbNqCpje/RFikJXQn0WGsNWWSSnSTP1/Fk1VFVZGWK2o3jnUtTp8rHHSYgDUnrzZW9nrKUKttMVdPiGZob6iltRnPKrXLcXMs/tI/b6KniQKOiYfzOVtHgSUrzZxDCNi1LNr6HhNDha93v24sPjI8r0vjWePFGXJniXeo2VTqMkO0pnu/KF5H4xgbmw2PoLrjcjafMhaRpmWNDi4N83I4ZQ4qvBsTHcPw4Z9yqzBO74IOs2GKOa2Ga8mwvDthqoSQtxyzavBbbDePPBnGSGFIcKiShiehV3lGFWa5e2munCg/I4oMYblMs2RgDR4zQx20jUL93ehOb91Fq0JlWdU8FbYjoLh485Acv4+MUjlBuAqlQ8eUpOtKmomh//QNl5B8LSIwkPqSZ1pBLngcV38mJkJonPoQVc426f9S2jOlwZ3N8gycCWXaiwtKJu6MjE+RLP6g8l6wxx3hM5JoBCKwMh4EV00NgDIyTp+WCsZCMoJlyZeVJ059SiDQFzcyNlmTVmCyiJAFHrHKqsi8J2qsZr5KvfS7StKQLWbXXGEjXATryC8/oqvY6NVn1ogElzcDUJl8lWW1UqL6cPeTGBGPu5UTFO5Qp0FKzI3HfjiSzNnERW6u97eWTEmyaBjbBWlI+zI1+EUOHmaD0JFFe/gux4choh8JFXgZc+mF+0SHS0Y+jGDdBs7JS4qKuYZBFa6MGayGdZhD9ygVxWixZ1D0ElkMtkcBBgbJTnf/cXQKoAUe+76gTh3Tg8EnP6+zUQ6uAxEoafo6ESo6sWroRefxazYQxMAA0nzFrJCSq+v1k+OwwyQh0i+ViPhgZFvIR04lvQuKrqCESlgGXJYLqIpIezJqKaMJriUKClQy/NGI8VMkSGQ/kVaKxUckm4HKAiC0Cp8bqQgm9kE9Wb6gSvCJfl8Rqyask0EUH2RGHuZn/nhsBvZW8ZmI5QqqWhU1JUajQARpjrbzKU5DgQD2kIV9HSXQuRsippcmcFx2mnGfUUI4yU9VMYZmd1jF6hKFERMhB0FxccPGr5co2HN5Douf42z3q8WR6Eo6tl11nhsc5SNNAY0YUCRkyhWRpoGaqUksKOSiR+UsCWY4sp1CiKJFA1epEyKGcNqXT5LupIqs3UWnVMpC5YcjnoJy+WjpI0xiBlKiWAatjvkoabVSVfdW+LP7Rtsw4vixIGuGabD2SFHh/EkwfXIJQ0tPUU5fvJB8+5Akl0IF2lUQoK5/mhqrFD4OhNuwWs4ussDgcZnmSa2kbHpjW/E/fuO+RY7Lm6U8pihdqpwZZpPbK7mRm9WxmsoSqOJy3sk0iLTAbL/tmlRN3mEDzvtfZOr1HQKGqiorH0dNDp+UyHjRBgIi3CwOJHdeILFmpWaN3RrQncHuGpyGr0+og92Xy61i05Le12Qynhh96YJ2Ko8TH/KWQBiT0qqfQ4H3CZqdTlT0qimSwsmjMuVz9RhP+r2w5vhs4H9obC7e91ySqZYnNLLSYsgM1C5j+ZrNMqEJZ2XhWKbG09LpL3bE5l7N3icCeJlUZbBSzxRx45aN6nrOOKWRUBAE0REaRenUULLI4yd8XiJ3iSqcVI6s+fv54EU+liPIwZSxJ15mKeMuMqmnFuGezjeKpij/8m73rP2fnmPV5ujqRrpPC2cSmemVlYnPVdKqUkNzSElWS5WpJNksykWdMaVkyaFNX1enSt5YUaQ27HrzSVOWAs09Kq6ec7bVqZWMF7mSzV1bdn0TOncR+umWQtW1FyeclCrTn65OIJLuNKVy3r7Ue28oPlN9+JJQnYbY5JdJ6qkDWOmECd5uAFs15byO8FQeGkF7rRNOPM2w5ZOfqpTQjL0dIaaQ12S3ncVsTuE0EFDpiCNoMwzSISUmf2gS2yidQY1R8kEpMrzEjIUY7h8S3CbrHagIbCdQXKtm1WGvfD261r5R5YOJA+XNcz07z7uawiPf58EQfA4Uzxor558ME7hMB/FlOt1wKn68JyNoVFijNdpV2rDSFsGIfJnCfCGC+sgVe5YnP0ApiS0q3QMVeWvybDhab811v5kH6rwlcm0DtZxEmm7221NMKmOPmxVm00MgTl8nghtOmF61dYAJ3jgCbVXJjuQV8ln639a4Mshx7bngKpndu+c69W56QCewTwGzlvzDk/ZozypVt5hieBsmYMd5bETqcEUQP5TYTSPMsBhszOX/9j58/qJjv0lhvmQBf65lnUb48xO0bVfsDknvyD2hv+WNI5nNcPnu3Uu30XyeJR7aVuBSTxsOFJZxZ6MmQFBzI3ZJlnLPx7vacZcOlzcarX9vvWN/M52b57NlvDEX6jZlmDFo+N8qbNDbq/3h2167FJDkIFYoVHyLO/ndIyf5xiCee1LTpOPX6VuwXE5CH4goX/7VpgF+ncY5Qp2sDhXoQWDKXAppP+cyrrnTaBO44gaL/MUf8WnHDmEK7uXtWCHJ45abJiA+aOD8bnNWwPRgTODoBNB+fpbuHMeQITmfffPRzXUcgHrZEzNPConWGkuvIdF8TuEUEFChjnhrz2TqpsoRMgxx9L1DteGL827d/f/fdd8yqhA2jULvzbm2ONCy/Q7EqMp8KRie5jY/s4Eolffv2L35hO36Yq3PGmyzKaCATrDvYLL+2za8LM1r+5ezKkpS5w4a9sfngq9D981l+n8tcaj4ziSv/Nrb59u1b3Faxi2lNQP9n73ylsK/UQFECg2So+NknT+RnO4uYZhcPiNx0WH/GuMznZvno7MUweSswAZzXeEQ3Uis7zVOPjJCLdR5V+PTp0z///JP983NbcXIOTpjAKQjU9129efMGQ8C95XGKMyJzq3zaNyPBwvn9XoIGfhO7rlq2rGudNoG7RACzwGYfP36M2uPI9MFpGtfpbCFPcSBMDY8NZpaX169f04uRn/fHWgfOzM1M4CACmCftpPOYAIYw6LbVvgaiulVr8uu4mTYP/n73ofRvA2h9tvX48T/evXv/+++/P3ny5OXL5wsfvTv1VlMfiNoJrVKWX8HoJM2nA6Uq2sqHoJPflOZWYR42/OrV6z/++OOnn34qxrMXjFZn2JbE9uhQW+O2/qPWYcu//PLvly9f/vDDv3LiY4vLZiPBVd1YWtVwSlr+kkldYj41jWV6jQ93NOhbf41C/vrrf3iIJG6L7SvcXLi6ScR52S8Dw9US37979w4/S9Dw448vci7LWWdVg2jZsmnQZNfkNM0ya/mJopswny6WLFzjIw+r199++y9btD///HNxjuHFjmuzORgSW/2v2ueQVuNm3Xel1pg01wEsT8+fP3/6ND5IWh5rdrjGaylhXGL55jMmMK79Av3BJaP5r169IoZG8/kgFQ9Xnhs1PtVBtVjWvCgc1H5Lo1hxPn78wMg5S7HZp4otBkK+gM9A2rLK8pdM6hLzqWks02M+dfTMLVV82IKpfv/993zwUlzYtCuEU9Mvjyzlby05lv2y2ZZf5H3//j1+lmVh4GfXxjnms9br8HLLH7Myny/mQ9D84UN4K+5uePHiBTZb/Gz8PPss8zjXurO0+HtN+824WTKn9YUMc+CXP5HOUTbePmHSXA38/eFSTQ9+3Trn3RgOO4XljzmZz4gPv7fXrUbtKSdWfvbs2dOnz2QLGMWVAWhX2tctDAsqhvu/v/56g9nij1mDKGH8Dy4ebRxMn8+6ENvvOpuoMZ+j8vk0/dw9vra4qgtsFtdL0Mx+s36CQHtANCBIPVbcPJ7D4bXpZxneo0ePiaHlZ4kkUkg95s/ltzmz6oCE7XcMyXxukg/+F7PlYxY+csHVcn//hw/8xmd8WXY8rJutXY2bcbTYMAsNicvL94yyLDr8FGh/3a8uDpoZ9ecPrKbdnLX8IGE+sz6cVn/W4mZMV9/zLcNgmyoOoucj/qT2PMGj/w0LYvyYJLvODBvLVVRB4uOK2dl+57fB60+QQG1mIM3f8+LzbblCrIeIqnPghi8vL4mb5bY0HV6P9XlRfcZrphktgyx+Np7ApQHv2+NuDfy0+5bv3mn329dVu7516W15f/NHYerBk/b4ZyC3+/198JmfyXxYNqTCYeFzeZUJzBM8x79N3LwbouwQk0ZBmZhmUmYVN3FvOfrv67qE/rq83t7y19lEjfls5RMaiOazX5WrsxIUnvd+8852cgFiLp8+xRU8h+13rAqldsfwgMY0sX2NOZ2WD3uxVcgY17dkOTBVXtF5SvDK+K9Z/9euB8azOG0tg+R4+PBCA9bgq1PWDK2fFZhO0nw6UKqi8+Ij34SrxTdhAtjp5edP6P+jh1vjzGqKp0+uPoeOUzP6YszauPqo9NYh0avbhUWtW7610PLHxMxnO5/Q2PS45dPe6bMXCrfHSePzn6qWj6oJF1iMWIk4UANF0lvPZ/0ZEzOfm+UjO9W7gEtJt0IJaTljTJhBzvrf90fjWZyulkHWflYDLuvMdM4ytd2Yt7pN6+f4vTOfm+WDn+JzIZkA7wUHyo/D+uZTfa04HuPXqGVgnCaXl9X95jKFmIMMm1fS89KzYaC6w2zZQeNYlm+NSyy/x3BXZj47Fr1UWkKp3F2Lo59oOzdmYNVUkdCuVX2vYU/eoWXI3z/1oR2H7Xbjj0v2uKskDqJ9TkeCEiY1lNBWWn9aIvt589nn0eZOzQcz4pQZaKLkZLEsDtJoOz6YuDnT52a/GCYHO80acBn4tFmeKCks6ZgajbP8kMSp+Vv++F0wnzGf8o3eyW1Nuk3MjNkWI97vq2bHiac512xW+yc5LLe636yVCOmsODpBJrqS1+15m513hVNo+WtkVG4+X8qn7rfTVXQej0vQzAUxbAma5X3r1tdMI/Y6pjs+O/Zb7u/kDLjh6aYxSjLCaLpbfxogTdZ8GiBN9qb4EBXjZTlC0cuhgcm4MF7cFt+xQ+3P034ZGKNmJdCAGXwmkvDMdrc6ZVUm5jZZkIlRr2x0ZcLyx4jM58v4XFzEVg4mQHf5pstyV+E3ca/DCf0jp7uO/NX95jGF9drdjtfc5jjXB7M0y59J9P+aT5/LXGo+M4n+X/Ppc5lLzWcm0f9rPn0uc6n5zCT6f82nz2UuNZ+ZRP/vqfjkdZFC/NX95v6oXGoCJmACJmACJmACJmAC94OAwuWc6zI8zyonTMAETMAETMAETMAETMAEJgKOm60KJmACJmACJmACJmACJnA1gaPHzdzNfNwbmps5WH4DpMmaTwOkyZpPA6TJmk8DpMmaTwOkyZpPA6TJmk8DpMmaTwOkyZpPA6TJnprPdLqjx83NNJw1ARMwARMwARMwARMwgbtA4OjP07gLUDwHEzABEzABEzABEzABE2gIeL+5AeKsCZiACZiACZiACZiACXQIrD6HrnleXafr9Yosf8zPfMxnTGBca/0xnzGBca31x3zGBMa11h/zGRMY1565/vg+jfHb51oTMAETMAETMAETMAETCAK+T8N6YAImYAImYAImYAImYAJXE3DcfDUjtzABEzABEzABEzABEzABx83WARMwARMwARMwARMwARO4moDj5qsZuYUJmIAJmIAJmIAJmIAJOG62DpiACZiACZiACZiACZjA1QQcN1/NyC1MwARMwARMwARMwARMYPX5zWtozvy5emvDznKPP1F0E+bTxZKF5pMougnz6WLJQvNJFN2E+XSxZKH5JIpuwny6WLLQfBJFN3EgHz+/uUvPhSZgAiZgAiZgAiZgAiawR8D3aezhcMYETMAETMAETMAETMAEugQcN3exuNAETMAETMAETMAETMAE9gg4bt7D4YwJmIAJmIAJmIAJmIAJiEDe96ys42YrhgmYgAmYgAmYgAmYgAn0CRA6Z/S8+XkafZEuNQETMAETMAETMAETMIG7ReDBgwf1hDbHzRlxN4JqoddJW/6YnvmYz5jAuNb6Yz5jAuNa64/5jAmMa60/5jMmMK69Kf0h3M1Tk1h9Dp0anSg4Bo3lH6If5r9GyfqzRkbl5mM+YwLjWuuP+YwJjGutP+YzJjCuPTf90XgYs0Ky0X7z6YI2IbP8seqYj/mMCYxrrT/mMyYwrrX+mM+YwLjW+mM+YwLj2rPSn2Ywq/vN4ym51gRMwARMwARMwARMwATuFQE/T+Nevd2erAmYgAmYgAmYgAmYwBcScNz8heDczQRMwARMwARMwARM4F4RcNx8r95uT9YETMAETMAETMAETOBQAnwvML8aSJ/VuLludKjsLe0sf0zLfMxnTGBca/0xnzGBca31x3zGBMa11h/zGRMY156b/vC9wPqrgatxM7M6t6GPQS9rPf4lk7rEfGoay7T5LJnUJeZT01imzWfJpC4xn5rGMm0+SyZ1ifnUNJZp81kyqUuuw6f7PI1lMP25Pt8B6VrCsm9dK2HLNuOT1BKWfetayzefpS7VGmI+5rPUgSWTusT6U9NYps1nyaQuMZ+axjJtPksmdYn51DSW6ePy6Uiri5and4kJmIAJmIAJmIAJmIAJmEAQcNxsPTABEzABEzABEzABEzCBqwk4br6akVuYgAmYgAmYgAmYgAmYgONm64AJmIAJmIAJmIAJmIAJXE3g//Ict/BCmlpVAAAAAElFTkSuQmCC;" vertex="1" parent="1">
          <mxGeometry x="-182" y="-1243" width="957" height="197" as="geometry" />
        </mxCell>
        <mxCell id="irQCuzZJ4Ze1SKZO0xTX-3" value="CD (ArgoCD)" style="rounded=1;whiteSpace=wrap;html=1;sketch=1;hachureGap=4;jiggle=2;curveFitting=1;fontFamily=Architects Daughter;fontSource=https%3A%2F%2Ffonts.googleapis.com%2Fcss%3Ffamily%3DArchitects%2BDaughter;fontSize=52;fillColor=none;arcSize=2;fontStyle=1;verticalAlign=top;" vertex="1" parent="1">
          <mxGeometry x="965" y="-1324" width="400" height="295" as="geometry" />
        </mxCell>
        <mxCell id="irQCuzZJ4Ze1SKZO0xTX-4" value="App" style="rounded=1;whiteSpace=wrap;html=1;sketch=1;hachureGap=4;jiggle=2;curveFitting=1;fontFamily=Architects Daughter;fontSource=https%3A%2F%2Ffonts.googleapis.com%2Fcss%3Ffamily%3DArchitects%2BDaughter;fontSize=51;fontStyle=1" vertex="1" parent="1">
          <mxGeometry x="1044.5" y="-1206" width="234" height="137" as="geometry" />
        </mxCell>
        <mxCell id="irQCuzZJ4Ze1SKZO0xTX-5" value="&lt;font style=&quot;font-size: 29px;&quot;&gt;Gitops&lt;br&gt;Application&lt;br&gt;Repository&lt;/font&gt;&lt;br&gt;(/gitops/manifests)" style="shape=cylinder3;whiteSpace=wrap;html=1;boundedLbl=1;backgroundOutline=1;size=15;sketch=1;hachureGap=4;jiggle=2;curveFitting=1;fontFamily=Architects Daughter;fontSource=https%3A%2F%2Ffonts.googleapis.com%2Fcss%3Ffamily%3DArchitects%2BDaughter;fontSize=20;" vertex="1" parent="1">
          <mxGeometry x="723" y="-965" width="298" height="237" as="geometry" />
        </mxCell>
        <mxCell id="irQCuzZJ4Ze1SKZO0xTX-6" value="" style="shape=flexArrow;endArrow=classic;html=1;rounded=0;sketch=1;hachureGap=4;jiggle=2;curveFitting=1;fontFamily=Architects Daughter;fontSource=https%3A%2F%2Ffonts.googleapis.com%2Fcss%3Ffamily%3DArchitects%2BDaughter;fontSize=16;endWidth=20;endSize=11.6;entryX=0;entryY=0.5;entryDx=0;entryDy=0;entryPerimeter=0;" edge="1" parent="1" target="irQCuzZJ4Ze1SKZO0xTX-5">
          <mxGeometry width="50" height="50" relative="1" as="geometry">
            <mxPoint x="565" y="-1086" as="sourcePoint" />
            <mxPoint x="558" y="-938" as="targetPoint" />
            <Array as="points">
              <mxPoint x="565" y="-847" />
            </Array>
          </mxGeometry>
        </mxCell>
        <mxCell id="irQCuzZJ4Ze1SKZO0xTX-7" value="Push" style="text;html=1;strokeColor=none;fillColor=none;align=center;verticalAlign=middle;whiteSpace=wrap;rounded=0;fontSize=39;fontFamily=Architects Daughter;" vertex="1" parent="1">
          <mxGeometry x="407" y="-965" width="180" height="30" as="geometry" />
        </mxCell>
        <mxCell id="irQCuzZJ4Ze1SKZO0xTX-8" value="" style="shape=flexArrow;endArrow=classic;html=1;rounded=0;sketch=1;hachureGap=4;jiggle=2;curveFitting=1;fontFamily=Architects Daughter;fontSource=https%3A%2F%2Ffonts.googleapis.com%2Fcss%3Ffamily%3DArchitects%2BDaughter;fontSize=16;endWidth=20;endSize=11.6;entryX=0.5;entryY=1;entryDx=0;entryDy=0;exitX=1;exitY=0.5;exitDx=0;exitDy=0;exitPerimeter=0;" edge="1" parent="1" source="irQCuzZJ4Ze1SKZO0xTX-5" target="irQCuzZJ4Ze1SKZO0xTX-4">
          <mxGeometry width="50" height="50" relative="1" as="geometry">
            <mxPoint x="1201" y="-915" as="sourcePoint" />
            <mxPoint x="1359" y="-675" as="targetPoint" />
            <Array as="points">
              <mxPoint x="1162" y="-850" />
            </Array>
          </mxGeometry>
        </mxCell>
        <mxCell id="irQCuzZJ4Ze1SKZO0xTX-9" value="Pull" style="text;html=1;strokeColor=none;fillColor=none;align=center;verticalAlign=middle;whiteSpace=wrap;rounded=0;fontSize=39;fontFamily=Architects Daughter;" vertex="1" parent="1">
          <mxGeometry x="1144" y="-965" width="180" height="30" as="geometry" />
        </mxCell>
        <mxCell id="irQCuzZJ4Ze1SKZO0xTX-10" value="" style="rounded=1;whiteSpace=wrap;html=1;sketch=1;hachureGap=4;jiggle=2;curveFitting=1;fontFamily=Architects Daughter;fontSource=https%3A%2F%2Ffonts.googleapis.com%2Fcss%3Ffamily%3DArchitects%2BDaughter;fontSize=20;fillColor=none;arcSize=2;spacingLeft=1;" vertex="1" parent="1">
          <mxGeometry x="1430" y="-916" width="442" height="171" as="geometry" />
        </mxCell>
        <mxCell id="irQCuzZJ4Ze1SKZO0xTX-11" value="Team &lt;br&gt;K8s Cluster" style="text;html=1;strokeColor=none;fillColor=none;align=center;verticalAlign=middle;whiteSpace=wrap;rounded=0;fontSize=41;fontFamily=Architects Daughter;fontStyle=1" vertex="1" parent="1">
          <mxGeometry x="1448" y="-865" width="390" height="63" as="geometry" />
        </mxCell>
        <mxCell id="irQCuzZJ4Ze1SKZO0xTX-13" value="" style="shape=flexArrow;endArrow=classic;html=1;rounded=0;sketch=1;hachureGap=4;jiggle=2;curveFitting=1;fontFamily=Architects Daughter;fontSource=https%3A%2F%2Ffonts.googleapis.com%2Fcss%3Ffamily%3DArchitects%2BDaughter;fontSize=16;endWidth=20;endSize=11.6;entryX=0.5;entryY=0;entryDx=0;entryDy=0;exitX=1;exitY=0.5;exitDx=0;exitDy=0;" edge="1" parent="1" source="irQCuzZJ4Ze1SKZO0xTX-4" target="irQCuzZJ4Ze1SKZO0xTX-10">
          <mxGeometry width="50" height="50" relative="1" as="geometry">
            <mxPoint x="1508" y="-962" as="sourcePoint" />
            <mxPoint x="1649" y="-1185" as="targetPoint" />
            <Array as="points">
              <mxPoint x="1649" y="-1137" />
            </Array>
          </mxGeometry>
        </mxCell>
        <mxCell id="irQCuzZJ4Ze1SKZO0xTX-14" value="Apply changes" style="text;html=1;strokeColor=none;fillColor=none;align=center;verticalAlign=middle;whiteSpace=wrap;rounded=0;fontSize=39;fontFamily=Architects Daughter;" vertex="1" parent="1">
          <mxGeometry x="1430" y="-1185" width="311" height="30" as="geometry" />
        </mxCell>
        <mxCell id="irQCuzZJ4Ze1SKZO0xTX-15" value="&lt;span style=&quot;font-size: 29px;&quot;&gt;Image &lt;br&gt;Registry&lt;/span&gt;" style="shape=cylinder3;whiteSpace=wrap;html=1;boundedLbl=1;backgroundOutline=1;size=15;sketch=1;hachureGap=4;jiggle=2;curveFitting=1;fontFamily=Architects Daughter;fontSource=https%3A%2F%2Ffonts.googleapis.com%2Fcss%3Ffamily%3DArchitects%2BDaughter;fontSize=20;" vertex="1" parent="1">
          <mxGeometry x="155" y="-973" width="204" height="191" as="geometry" />
        </mxCell>
        <mxCell id="irQCuzZJ4Ze1SKZO0xTX-16" value="" style="shape=flexArrow;endArrow=classic;html=1;rounded=0;sketch=1;hachureGap=4;jiggle=2;curveFitting=1;fontFamily=Architects Daughter;fontSource=https%3A%2F%2Ffonts.googleapis.com%2Fcss%3Ffamily%3DArchitects%2BDaughter;fontSize=16;" edge="1" parent="1">
          <mxGeometry width="50" height="50" relative="1" as="geometry">
            <mxPoint x="254.88" y="-1083" as="sourcePoint" />
            <mxPoint x="259.13" y="-961" as="targetPoint" />
          </mxGeometry>
        </mxCell>
      </root>
    </mxGraphModel>
  </diagram>
</mxfile>
